{
  "source": "C:\\Users\\Peter\\Desktop\\stuff\\MIUN\\quantitative_research\\video_compression\\videos\\BVI-HD\\BVI-HD_CDVL_videos\\ORIG\\BridgeRiver_1920x1080_30fps.mp4",
  "output": "C:\\Users\\Peter\\Desktop\\stuff\\MIUN\\quantitative_research\\video_compression\\compressed_videos\\BVI-HD\\hevc\\8\\BridgeRiver_1920x1080_30fps_hevc.mp4",
  "codec": "hevc",
  "ok": "Input #0, mov,mp4,m4a,3gp,3g2,mj2, from 'C:\\Users\\Peter\\Desktop\\stuff\\MIUN\\quantitative_research\\video_compression\\videos\\BVI-HD\\BVI-HD_CDVL_videos\\ORIG\\BridgeRiver_1920x1080_30fps.mp4':\n  Metadata:\n    major_brand     : isom\n    minor_version   : 512\n    compatible_brands: isomiso2avc1mp41\n    encoder         : Lavf54.28.101\n  Duration: 00:00:05.00, start: 0.000000, bitrate: 274913 kb/s\n  Stream #0:0[0x1](und): Video: h264 (High 4:4:4 Predictive) (avc1 / 0x31637661), yuv420p(progressive), 1920x1080, 274910 kb/s, 30 fps, 30 tbr, 30 tbn (default)\n    Metadata:\n      handler_name    : VideoHandler\n      vendor_id       : [0][0][0][0]\n[out#0/mp4 @ 0000027ab5df1700] Codec AVOption b:a (set bitrate (in bits/s)) has not been used for any stream. The most likely reason is either wrong type (e.g. a video option with no video streams) or that it is a private option of some decoder which was not actually used for any stream.\nStream mapping:\n  Stream #0:0 -> #0:0 (h264 (native) -> hevc (libx265))\nPress [q] to stop, [?] for help\n[libx265 @ 0000027ab6970180] Unknown option: \"aq-mode.\nx265 [info]: HEVC encoder version 4.1+190-8f11c33ac\nx265 [info]: build info [Windows][GCC 15.1.0][64 bit] 10bit\nx265 [info]: using cpu capabilities: MMX2 SSE2Fast LZCNT SSSE3 SSE4.2 AVX FMA3 BMI2 AVX2\nx265 [info]: Main 10 profile, Level-4 (Main tier)\nx265 [info]: Thread pool created using 12 threads\nx265 [info]: Slices                              : 1\nx265 [info]: frame threads / pool features       : 3 / wpp(17 rows)\nx265 [info]: Coding QT: max CU size, min CU size : 64 / 8\nx265 [info]: Residual QT: max TU size, max depth : 32 / 1 inter / 1 intra\nx265 [info]: ME / range / subpel / merge         : star / 57 / 3 / 3\nx265 [info]: Keyframe min / max / scenecut / bias  : 25 / 250 / 40 / 5.00 \nx265 [info]: Lookahead / bframes / badapt        : 25 / 4 / 2\nx265 [info]: b-pyramid / weightp / weightb       : 1 / 1 / 0\nx265 [info]: References / ref-limit  cu / depth  : 4 / on / on\nx265 [info]: AQ: mode / str / qg-size / cu-tree  : 2 / 1.0 / 32 / 1\nx265 [info]: Rate Control / qCompress            : ABR-8000 kbps / 0.60\nx265 [info]: VBV/HRD buffer / max-rate / init    : 8000 / 8000 / 0.750\nx265 [info]: tools: rect limit-modes rd=4 psy-rd=2.00 rdoq=2 psy-rdoq=1.00\nx265 [info]: tools: rskip mode=1 signhide tmvp strong-intra-smoothing lslices=4\nx265 [info]: tools: deblock sao dhdr10-info\nOutput #0, mp4, to 'C:\\Users\\Peter\\Desktop\\stuff\\MIUN\\quantitative_research\\video_compression\\compressed_videos\\BVI-HD\\hevc\\8\\BridgeRiver_1920x1080_30fps_hevc.mp4':\n  Metadata:\n    major_brand     : isom\n    minor_version   : 512\n    compatible_brands: isomiso2avc1mp41\n    encoder         : Lavf62.3.100\n  Stream #0:0(und): Video: hevc (hev1 / 0x31766568), yuv420p10le(tv, progressive), 1920x1080, q=2-31, 8000 kb/s, 30 fps, 15360 tbn (default)\n    Metadata:\n      encoder         : Lavc62.11.100 libx265\n      handler_name    : VideoHandler\n      vendor_id       : [0][0][0][0]\n    Side data:\n      cpb: bitrate max/min/avg: 8000000/0/8000000 buffer size: 8000000 vbv_delay: N/A\nframe=    0 fps=0.0 q=0.0 size=       0KiB time=N/A bitrate=N/A speed=N/A elapsed=0:00:01.13    \nframe=    0 fps=0.0 q=0.0 size=       0KiB time=N/A bitrate=N/A speed=N/A elapsed=0:00:01.70    \nframe=    0 fps=0.0 q=0.0 size=       0KiB time=N/A bitrate=N/A speed=N/A elapsed=0:00:02.23    \nframe=    0 fps=0.0 q=0.0 size=       0KiB time=N/A bitrate=N/A speed=N/A elapsed=0:00:02.74    \nframe=    0 fps=0.0 q=0.0 size=       0KiB time=N/A bitrate=N/A speed=N/A elapsed=0:00:03.25    \nframe=    0 fps=0.0 q=0.0 size=       0KiB time=N/A bitrate=N/A speed=N/A elapsed=0:00:03.76    \nframe=    0 fps=0.0 q=0.0 size=       0KiB time=N/A bitrate=N/A speed=N/A elapsed=0:00:04.30    \nframe=    0 fps=0.0 q=0.0 size=       0KiB time=N/A bitrate=N/A speed=N/A elapsed=0:00:04.83    \nframe=    0 fps=0.0 q=0.0 size=       0KiB time=N/A bitrate=N/A speed=N/A elapsed=0:00:05.34    \nframe=    0 fps=0.0 q=0.0 size=       0KiB time=N/A bitrate=N/A speed=N/A elapsed=0:00:05.90    \nframe=    0 fps=0.0 q=0.0 size=       0KiB time=N/A bitrate=N/A speed=N/A elapsed=0:00:06.44    \nframe=    0 fps=0.0 q=0.0 size=       0KiB time=N/A bitrate=N/A speed=N/A elapsed=0:00:07.00    \nframe=    0 fps=0.0 q=0.0 size=       0KiB time=N/A bitrate=N/A speed=N/A elapsed=0:00:07.59    \nframe=    0 fps=0.0 q=0.0 size=       0KiB time=N/A bitrate=N/A speed=N/A elapsed=0:00:08.11    \nframe=    0 fps=0.0 q=0.0 size=       0KiB time=N/A bitrate=N/A speed=N/A elapsed=0:00:08.63    \nframe=    0 fps=0.0 q=0.0 size=       0KiB time=N/A bitrate=N/A speed=N/A elapsed=0:00:09.14    \nframe=    0 fps=0.0 q=0.0 size=       0KiB time=N/A bitrate=N/A speed=N/A elapsed=0:00:09.67    \nframe=    0 fps=0.0 q=0.0 size=       0KiB time=N/A bitrate=N/A speed=N/A elapsed=0:00:10.23    \nframe=    0 fps=0.0 q=0.0 size=       0KiB time=N/A bitrate=N/A speed=N/A elapsed=0:00:10.77    \nframe=    0 fps=0.0 q=0.0 size=       0KiB time=N/A bitrate=N/A speed=N/A elapsed=0:00:11.35    \nframe=    0 fps=0.0 q=0.0 size=       0KiB time=N/A bitrate=N/A speed=N/A elapsed=0:00:11.89    \nframe=    0 fps=0.0 q=0.0 size=       0KiB time=N/A bitrate=N/A speed=N/A elapsed=0:00:12.42    \nframe=    0 fps=0.0 q=0.0 size=       0KiB time=N/A bitrate=N/A speed=N/A elapsed=0:00:12.96    \nframe=    1 fps=0.1 q=28.4 size=       0KiB time=-00:00:00.03 bitrate=N/A speed=N/A elapsed=0:00:13.49    \nframe=    1 fps=0.1 q=28.4 size=       0KiB time=-00:00:00.03 bitrate=N/A speed=N/A elapsed=0:00:14.01    \nframe=    1 fps=0.1 q=28.4 size=       0KiB time=-00:00:00.03 bitrate=N/A speed=N/A elapsed=0:00:14.54    \nframe=    2 fps=0.1 q=33.2 size=       0KiB time=00:00:00.00 bitrate=N/A speed=   0x elapsed=0:00:15.09    \nframe=    3 fps=0.2 q=37.5 size=       0KiB time=00:00:00.03 bitrate=  10.6kbits/s speed=0.00213x elapsed=0:00:15.64    \nframe=    3 fps=0.2 q=37.5 size=       0KiB time=00:00:00.03 bitrate=  10.6kbits/s speed=0.00205x elapsed=0:00:16.24    \nframe=    3 fps=0.2 q=37.5 size=       0KiB time=00:00:00.03 bitrate=  10.6kbits/s speed=0.00198x elapsed=0:00:16.81    \nframe=    3 fps=0.2 q=37.5 size=       0KiB time=00:00:00.03 bitrate=  10.6kbits/s speed=0.00191x elapsed=0:00:17.42    \nframe=    3 fps=0.2 q=37.5 size=       0KiB time=00:00:00.03 bitrate=  10.6kbits/s speed=0.00185x elapsed=0:00:17.99    \nframe=    3 fps=0.2 q=37.5 size=       0KiB time=00:00:00.03 bitrate=  10.6kbits/s speed=0.0018x elapsed=0:00:18.51    \nframe=    3 fps=0.2 q=37.5 size=       0KiB time=00:00:00.03 bitrate=  10.6kbits/s speed=0.00175x elapsed=0:00:19.05    \nframe=    3 fps=0.2 q=37.5 size=       0KiB time=00:00:00.03 bitrate=  10.6kbits/s speed=0.0017x elapsed=0:00:19.56    \nframe=    4 fps=0.2 q=38.8 size=       0KiB time=00:00:00.06 bitrate=   5.3kbits/s speed=0.00332x elapsed=0:00:20.07    \nframe=    4 fps=0.2 q=38.8 size=       0KiB time=00:00:00.06 bitrate=   5.3kbits/s speed=0.00323x elapsed=0:00:20.61    \nframe=    5 fps=0.2 q=38.9 size=       0KiB time=00:00:00.10 bitrate=   3.5kbits/s speed=0.00472x elapsed=0:00:21.17    \nframe=    5 fps=0.2 q=38.9 size=       0KiB time=00:00:00.10 bitrate=   3.5kbits/s speed=0.00459x elapsed=0:00:21.78    \nframe=    5 fps=0.2 q=38.9 size=       0KiB time=00:00:00.10 bitrate=   3.5kbits/s speed=0.00448x elapsed=0:00:22.32    \nframe=    5 fps=0.2 q=38.9 size=       0KiB time=00:00:00.10 bitrate=   3.5kbits/s speed=0.00436x elapsed=0:00:22.93    \nframe=    6 fps=0.3 q=38.8 size=     256KiB time=00:00:00.13 bitrate=15731.3kbits/s speed=0.00567x elapsed=0:00:23.49    \nframe=    6 fps=0.2 q=38.8 size=     256KiB time=00:00:00.13 bitrate=15731.3kbits/s speed=0.00554x elapsed=0:00:24.05    \nframe=    6 fps=0.2 q=38.8 size=     256KiB time=00:00:00.13 bitrate=15731.3kbits/s speed=0.00542x elapsed=0:00:24.60    \nframe=    6 fps=0.2 q=38.8 size=     256KiB time=00:00:00.13 bitrate=15731.3kbits/s speed=0.0053x elapsed=0:00:25.17    \nframe=    6 fps=0.2 q=38.8 size=     256KiB time=00:00:00.13 bitrate=15731.3kbits/s speed=0.00519x elapsed=0:00:25.69    \nframe=    6 fps=0.2 q=38.8 size=     256KiB time=00:00:00.13 bitrate=15731.3kbits/s speed=0.00508x elapsed=0:00:26.24    \nframe=    7 fps=0.3 q=32.1 size=     256KiB time=00:00:00.16 bitrate=12585.0kbits/s speed=0.00622x elapsed=0:00:26.79    \nframe=    7 fps=0.3 q=32.1 size=     256KiB time=00:00:00.16 bitrate=12585.0kbits/s speed=0.0061x elapsed=0:00:27.32    \nframe=    7 fps=0.3 q=32.1 size=     256KiB time=00:00:00.16 bitrate=12585.0kbits/s speed=0.00598x elapsed=0:00:27.85    \nframe=    7 fps=0.2 q=32.1 size=     256KiB time=00:00:00.16 bitrate=12585.0kbits/s speed=0.00587x elapsed=0:00:28.39    \nframe=    8 fps=0.3 q=36.9 size=     256KiB time=00:00:00.20 bitrate=10487.5kbits/s speed=0.00691x elapsed=0:00:28.94    \nframe=    8 fps=0.3 q=36.9 size=     256KiB time=00:00:00.20 bitrate=10487.5kbits/s speed=0.00678x elapsed=0:00:29.48    \nframe=    8 fps=0.3 q=36.9 size=     256KiB time=00:00:00.20 bitrate=10487.5kbits/s speed=0.00667x elapsed=0:00:29.99    \nframe=    8 fps=0.3 q=36.9 size=     256KiB time=00:00:00.20 bitrate=10487.5kbits/s speed=0.00655x elapsed=0:00:30.53    \nframe=    9 fps=0.3 q=38.6 size=     256KiB time=00:00:00.23 bitrate=8989.3kbits/s speed=0.00751x elapsed=0:00:31.07    \nframe=    9 fps=0.3 q=38.6 size=     256KiB time=00:00:00.23 bitrate=8989.3kbits/s speed=0.00738x elapsed=0:00:31.63    \nframe=    9 fps=0.3 q=38.6 size=     256KiB time=00:00:00.23 bitrate=8989.3kbits/s speed=0.00725x elapsed=0:00:32.17    \nframe=    9 fps=0.3 q=38.6 size=     256KiB time=00:00:00.23 bitrate=8989.3kbits/s speed=0.00713x elapsed=0:00:32.74    \nframe=   10 fps=0.3 q=38.1 size=     256KiB time=00:00:00.26 bitrate=7865.6kbits/s speed=0.00801x elapsed=0:00:33.31    \nframe=   10 fps=0.3 q=38.1 size=     256KiB time=00:00:00.26 bitrate=7865.6kbits/s speed=0.00787x elapsed=0:00:33.86    \nframe=   10 fps=0.3 q=38.1 size=     256KiB time=00:00:00.26 bitrate=7865.6kbits/s speed=0.00775x elapsed=0:00:34.38    \nframe=   11 fps=0.3 q=37.8 size=     256KiB time=00:00:00.30 bitrate=6991.7kbits/s speed=0.00859x elapsed=0:00:34.90    \nframe=   11 fps=0.3 q=37.8 size=     256KiB time=00:00:00.30 bitrate=6991.7kbits/s speed=0.00846x elapsed=0:00:35.46    \nframe=   11 fps=0.3 q=37.8 size=     256KiB time=00:00:00.30 bitrate=6991.7kbits/s speed=0.00833x elapsed=0:00:36.00    \nframe=   12 fps=0.3 q=32.6 size=     256KiB time=00:00:00.33 bitrate=6292.5kbits/s speed=0.00911x elapsed=0:00:36.58    \nframe=   13 fps=0.4 q=36.9 size=     256KiB time=00:00:00.33 bitrate=6292.5kbits/s speed=0.00898x elapsed=0:00:37.11    \nframe=   13 fps=0.3 q=36.9 size=     256KiB time=00:00:00.36 bitrate=5720.5kbits/s speed=0.00974x elapsed=0:00:37.64    \nframe=   13 fps=0.3 q=36.9 size=     256KiB time=00:00:00.36 bitrate=5720.5kbits/s speed=0.0096x elapsed=0:00:38.20    \nframe=   13 fps=0.3 q=36.9 size=     256KiB time=00:00:00.36 bitrate=5720.5kbits/s speed=0.00947x elapsed=0:00:38.73    \nframe=   13 fps=0.3 q=36.9 size=     256KiB time=00:00:00.36 bitrate=5720.5kbits/s speed=0.00933x elapsed=0:00:39.28    \nframe=   13 fps=0.3 q=36.9 size=     256KiB time=00:00:00.36 bitrate=5720.5kbits/s speed=0.00921x elapsed=0:00:39.79    \nframe=   14 fps=0.3 q=37.8 size=     512KiB time=00:00:00.40 bitrate=10486.6kbits/s speed=0.00992x elapsed=0:00:40.31    \nframe=   14 fps=0.3 q=37.8 size=     512KiB time=00:00:00.40 bitrate=10486.6kbits/s speed=0.0098x elapsed=0:00:40.82    \nframe=   15 fps=0.4 q=38.0 size=     512KiB time=00:00:00.43 bitrate=9680.0kbits/s speed=0.0105x elapsed=0:00:41.34    \nframe=   15 fps=0.4 q=38.0 size=     512KiB time=00:00:00.43 bitrate=9680.0kbits/s speed=0.0103x elapsed=0:00:41.89    \nframe=   15 fps=0.4 q=38.0 size=     512KiB time=00:00:00.43 bitrate=9680.0kbits/s speed=0.0102x elapsed=0:00:42.42    \nframe=   15 fps=0.3 q=38.0 size=     512KiB time=00:00:00.43 bitrate=9680.0kbits/s speed=0.0101x elapsed=0:00:42.93    \nframe=   16 fps=0.4 q=38.1 size=     512KiB time=00:00:00.46 bitrate=8988.5kbits/s speed=0.0107x elapsed=0:00:43.45    \nframe=   16 fps=0.4 q=38.1 size=     512KiB time=00:00:00.46 bitrate=8988.5kbits/s speed=0.0106x elapsed=0:00:43.97    \nframe=   16 fps=0.4 q=38.1 size=     512KiB time=00:00:00.46 bitrate=8988.5kbits/s speed=0.0105x elapsed=0:00:44.48    \nframe=   16 fps=0.4 q=38.1 size=     512KiB time=00:00:00.46 bitrate=8988.5kbits/s speed=0.0104x elapsed=0:00:45.00    \nframe=   17 fps=0.4 q=32.8 size=     512KiB time=00:00:00.50 bitrate=8389.3kbits/s speed=0.011x elapsed=0:00:45.52    \nframe=   18 fps=0.4 q=36.9 size=     512KiB time=00:00:00.53 bitrate=7865.0kbits/s speed=0.0116x elapsed=0:00:46.04    \nframe=   18 fps=0.4 q=36.9 size=     512KiB time=00:00:00.53 bitrate=7865.0kbits/s speed=0.0115x elapsed=0:00:46.56    \nframe=   19 fps=0.4 q=38.0 size=     512KiB time=00:00:00.56 bitrate=7402.3kbits/s speed=0.012x elapsed=0:00:47.08    \nframe=   19 fps=0.4 q=38.0 size=     512KiB time=00:00:00.56 bitrate=7402.3kbits/s speed=0.0119x elapsed=0:00:47.61    \nframe=   19 fps=0.4 q=38.0 size=     512KiB time=00:00:00.56 bitrate=7402.3kbits/s speed=0.0118x elapsed=0:00:48.14    \nframe=   20 fps=0.4 q=37.8 size=     512KiB time=00:00:00.60 bitrate=6991.1kbits/s speed=0.0123x elapsed=0:00:48.67    \nframe=   20 fps=0.4 q=37.8 size=     512KiB time=00:00:00.60 bitrate=6991.1kbits/s speed=0.0122x elapsed=0:00:49.20    \nframe=   21 fps=0.4 q=38.2 size=     512KiB time=00:00:00.63 bitrate=6623.1kbits/s speed=0.0127x elapsed=0:00:49.73    \nframe=   21 fps=0.4 q=38.2 size=     512KiB time=00:00:00.63 bitrate=6623.1kbits/s speed=0.0126x elapsed=0:00:50.26    \nframe=   21 fps=0.4 q=38.2 size=     512KiB time=00:00:00.63 bitrate=6623.1kbits/s speed=0.0125x elapsed=0:00:50.81    \nframe=   21 fps=0.4 q=38.2 size=     512KiB time=00:00:00.63 bitrate=6623.1kbits/s speed=0.0123x elapsed=0:00:51.32    \nframe=   23 fps=0.4 q=36.1 size=     768KiB time=00:00:00.70 bitrate=8988.3kbits/s speed=0.0135x elapsed=0:00:51.84    \nframe=   23 fps=0.4 q=36.1 size=     768KiB time=00:00:00.70 bitrate=8988.3kbits/s speed=0.0134x elapsed=0:00:52.36    \nframe=   23 fps=0.4 q=36.1 size=     768KiB time=00:00:00.70 bitrate=8988.3kbits/s speed=0.0132x elapsed=0:00:52.88    \nframe=   24 fps=0.4 q=38.2 size=     768KiB time=00:00:00.73 bitrate=8579.7kbits/s speed=0.0137x elapsed=0:00:53.41    \nframe=   24 fps=0.4 q=38.2 size=     768KiB time=00:00:00.73 bitrate=8579.7kbits/s speed=0.0136x elapsed=0:00:53.95    \nframe=   24 fps=0.4 q=38.2 size=     768KiB time=00:00:00.73 bitrate=8579.7kbits/s speed=0.0135x elapsed=0:00:54.46    \nframe=   24 fps=0.4 q=38.2 size=     768KiB time=00:00:00.73 bitrate=8579.7kbits/s speed=0.0133x elapsed=0:00:55.00    \nframe=   25 fps=0.5 q=38.2 size=     768KiB time=00:00:00.76 bitrate=8206.7kbits/s speed=0.0138x elapsed=0:00:55.52    \nframe=   25 fps=0.4 q=38.2 size=     768KiB time=00:00:00.76 bitrate=8206.7kbits/s speed=0.0137x elapsed=0:00:56.04    \nframe=   25 fps=0.4 q=38.2 size=     768KiB time=00:00:00.76 bitrate=8206.7kbits/s speed=0.0136x elapsed=0:00:56.56    \nframe=   25 fps=0.4 q=38.2 size=     768KiB time=00:00:00.76 bitrate=8206.7kbits/s speed=0.0134x elapsed=0:00:57.07    \nframe=   26 fps=0.5 q=32.8 size=     768KiB time=00:00:00.80 bitrate=7864.8kbits/s speed=0.0139x elapsed=0:00:57.59    \nframe=   26 fps=0.4 q=32.8 size=     768KiB time=00:00:00.80 bitrate=7864.8kbits/s speed=0.0138x elapsed=0:00:58.11    \nframe=   26 fps=0.4 q=32.8 size=     768KiB time=00:00:00.80 bitrate=7864.8kbits/s speed=0.0136x elapsed=0:00:58.63    \nframe=   26 fps=0.4 q=32.8 size=     768KiB time=00:00:00.80 bitrate=7864.8kbits/s speed=0.0135x elapsed=0:00:59.17    \nframe=   26 fps=0.4 q=32.8 size=     768KiB time=00:00:00.80 bitrate=7864.8kbits/s speed=0.0134x elapsed=0:00:59.69    \nframe=   26 fps=0.4 q=32.8 size=     768KiB time=00:00:00.80 bitrate=7864.8kbits/s speed=0.0133x elapsed=0:01:00.24    \nframe=   26 fps=0.4 q=32.8 size=     768KiB time=00:00:00.80 bitrate=7864.8kbits/s speed=0.0132x elapsed=0:01:00.78    \nframe=   28 fps=0.5 q=38.2 size=     768KiB time=00:00:00.86 bitrate=7259.8kbits/s speed=0.0141x elapsed=0:01:01.29    \nframe=   28 fps=0.5 q=38.2 size=     768KiB time=00:00:00.86 bitrate=7259.8kbits/s speed=0.014x elapsed=0:01:01.83    \nframe=   29 fps=0.5 q=38.3 size=    1024KiB time=00:00:00.90 bitrate=9321.1kbits/s speed=0.0144x elapsed=0:01:02.35    \nframe=   29 fps=0.5 q=38.3 size=    1024KiB time=00:00:00.90 bitrate=9321.1kbits/s speed=0.0143x elapsed=0:01:02.89    \nframe=   29 fps=0.5 q=38.3 size=    1024KiB time=00:00:00.90 bitrate=9321.1kbits/s speed=0.0142x elapsed=0:01:03.41    \nframe=   29 fps=0.5 q=38.3 size=    1024KiB time=00:00:00.90 bitrate=9321.1kbits/s speed=0.0141x elapsed=0:01:03.94    \nframe=   29 fps=0.4 q=38.3 size=    1024KiB time=00:00:00.90 bitrate=9321.1kbits/s speed=0.014x elapsed=0:01:04.47    \nframe=   30 fps=0.5 q=38.1 size=    1024KiB time=00:00:00.93 bitrate=8988.2kbits/s speed=0.0144x elapsed=0:01:05.02    \nframe=   30 fps=0.5 q=38.1 size=    1024KiB time=00:00:00.93 bitrate=8988.2kbits/s speed=0.0142x elapsed=0:01:05.55    \nframe=   30 fps=0.5 q=38.1 size=    1024KiB time=00:00:00.93 bitrate=8988.2kbits/s speed=0.0141x elapsed=0:01:06.12    \nframe=   30 fps=0.4 q=38.1 size=    1024KiB time=00:00:00.93 bitrate=8988.2kbits/s speed=0.014x elapsed=0:01:06.74    \nframe=   30 fps=0.4 q=38.1 size=    1024KiB time=00:00:00.93 bitrate=8988.2kbits/s speed=0.0139x elapsed=0:01:07.31    \nframe=   30 fps=0.4 q=38.1 size=    1024KiB time=00:00:00.93 bitrate=8988.2kbits/s speed=0.0137x elapsed=0:01:07.88    \nframe=   30 fps=0.4 q=38.1 size=    1024KiB time=00:00:00.93 bitrate=8988.2kbits/s speed=0.0136x elapsed=0:01:08.46    \nframe=   30 fps=0.4 q=38.1 size=    1024KiB time=00:00:00.93 bitrate=8988.2kbits/s speed=0.0135x elapsed=0:01:09.09    \nframe=   30 fps=0.4 q=38.1 size=    1024KiB time=00:00:00.93 bitrate=8988.2kbits/s speed=0.0134x elapsed=0:01:09.73    \nframe=   30 fps=0.4 q=38.1 size=    1024KiB time=00:00:00.93 bitrate=8988.2kbits/s speed=0.0133x elapsed=0:01:10.34    \nframe=   30 fps=0.4 q=38.1 size=    1024KiB time=00:00:00.93 bitrate=8988.2kbits/s speed=0.0131x elapsed=0:01:11.03    \nframe=   30 fps=0.4 q=38.1 size=    1024KiB time=00:00:00.93 bitrate=8988.2kbits/s speed=0.013x elapsed=0:01:11.58    \nframe=   30 fps=0.4 q=38.1 size=    1024KiB time=00:00:00.93 bitrate=8988.2kbits/s speed=0.0129x elapsed=0:01:12.12    \nframe=   30 fps=0.4 q=38.1 size=    1024KiB time=00:00:00.93 bitrate=8988.2kbits/s speed=0.0128x elapsed=0:01:12.83    \nframe=   30 fps=0.4 q=38.1 size=    1024KiB time=00:00:00.93 bitrate=8988.2kbits/s speed=0.0127x elapsed=0:01:13.52    \nframe=   30 fps=0.4 q=38.1 size=    1024KiB time=00:00:00.93 bitrate=8988.2kbits/s speed=0.0126x elapsed=0:01:14.08    \nframe=   30 fps=0.4 q=38.1 size=    1024KiB time=00:00:00.93 bitrate=8988.2kbits/s speed=0.0125x elapsed=0:01:14.68    \nframe=   30 fps=0.4 q=38.1 size=    1024KiB time=00:00:00.93 bitrate=8988.2kbits/s speed=0.0124x elapsed=0:01:15.39    \nframe=   30 fps=0.4 q=38.1 size=    1024KiB time=00:00:00.93 bitrate=8988.2kbits/s speed=0.0123x elapsed=0:01:16.05    \nframe=   30 fps=0.4 q=38.1 size=    1024KiB time=00:00:00.93 bitrate=8988.2kbits/s speed=0.0122x elapsed=0:01:16.66    \nframe=   30 fps=0.4 q=38.1 size=    1024KiB time=00:00:00.93 bitrate=8988.2kbits/s speed=0.0121x elapsed=0:01:17.42    \nframe=   30 fps=0.4 q=38.1 size=    1024KiB time=00:00:00.93 bitrate=8988.2kbits/s speed=0.0119x elapsed=0:01:18.16    \nframe=   30 fps=0.4 q=38.1 size=    1024KiB time=00:00:00.93 bitrate=8988.2kbits/s speed=0.0118x elapsed=0:01:18.88    \nframe=   30 fps=0.4 q=38.1 size=    1024KiB time=00:00:00.93 bitrate=8988.2kbits/s speed=0.0117x elapsed=0:01:19.60    \nframe=   30 fps=0.4 q=38.1 size=    1024KiB time=00:00:00.93 bitrate=8988.2kbits/s speed=0.0116x elapsed=0:01:20.32    \nframe=   30 fps=0.4 q=38.1 size=    1024KiB time=00:00:00.93 bitrate=8988.2kbits/s speed=0.0115x elapsed=0:01:20.87    \nframe=   30 fps=0.4 q=38.1 size=    1024KiB time=00:00:00.93 bitrate=8988.2kbits/s speed=0.0114x elapsed=0:01:21.53    \nframe=   30 fps=0.4 q=38.1 size=    1024KiB time=00:00:00.93 bitrate=8988.2kbits/s speed=0.0113x elapsed=0:01:22.27    \nframe=   30 fps=0.4 q=38.1 size=    1024KiB time=00:00:00.93 bitrate=8988.2kbits/s speed=0.0112x elapsed=0:01:23.00    \nframe=   30 fps=0.4 q=38.1 size=    1024KiB time=00:00:00.93 bitrate=8988.2kbits/s speed=0.0112x elapsed=0:01:23.65    \nframe=   30 fps=0.4 q=38.1 size=    1024KiB time=00:00:00.93 bitrate=8988.2kbits/s speed=0.0111x elapsed=0:01:24.23    \nframe=   30 fps=0.4 q=38.1 size=    1024KiB time=00:00:00.93 bitrate=8988.2kbits/s speed=0.011x elapsed=0:01:24.93    \nframe=   30 fps=0.4 q=38.1 size=    1024KiB time=00:00:00.93 bitrate=8988.2kbits/s speed=0.0109x elapsed=0:01:25.56    \nframe=   30 fps=0.3 q=38.1 size=    1024KiB time=00:00:00.93 bitrate=8988.2kbits/s speed=0.0108x elapsed=0:01:26.22    \nframe=   30 fps=0.3 q=38.1 size=    1024KiB time=00:00:00.93 bitrate=8988.2kbits/s speed=0.0108x elapsed=0:01:26.78    \nframe=   30 fps=0.3 q=38.1 size=    1024KiB time=00:00:00.93 bitrate=8988.2kbits/s speed=0.0107x elapsed=0:01:27.47    \nframe=   30 fps=0.3 q=38.1 size=    1024KiB time=00:00:00.93 bitrate=8988.2kbits/s speed=0.0106x elapsed=0:01:28.18    \nframe=   30 fps=0.3 q=38.1 size=    1024KiB time=00:00:00.93 bitrate=8988.2kbits/s speed=0.0105x elapsed=0:01:28.93    \nframe=   31 fps=0.3 q=32.9 size=    1024KiB time=00:00:00.96 bitrate=8678.2kbits/s speed=0.0108x elapsed=0:01:29.61    \nframe=   31 fps=0.3 q=32.9 size=    1024KiB time=00:00:00.96 bitrate=8678.2kbits/s speed=0.0107x elapsed=0:01:30.16    \nframe=   31 fps=0.3 q=32.9 size=    1024KiB time=00:00:00.96 bitrate=8678.2kbits/s speed=0.0106x elapsed=0:01:30.77    \nframe=   31 fps=0.3 q=32.9 size=    1024KiB time=00:00:00.96 bitrate=8678.2kbits/s speed=0.0106x elapsed=0:01:31.48    \nframe=   31 fps=0.3 q=32.9 size=    1024KiB time=00:00:00.96 bitrate=8678.2kbits/s speed=0.0105x elapsed=0:01:32.15    \nframe=   32 fps=0.3 q=34.1 size=    1024KiB time=00:00:01.00 bitrate=8389.0kbits/s speed=0.0108x elapsed=0:01:32.78    \nframe=   32 fps=0.3 q=34.1 size=    1024KiB time=00:00:01.00 bitrate=8389.0kbits/s speed=0.0107x elapsed=0:01:33.34    \nframe=   32 fps=0.3 q=34.1 size=    1024KiB time=00:00:01.00 bitrate=8389.0kbits/s speed=0.0106x elapsed=0:01:33.95    \nframe=   32 fps=0.3 q=34.1 size=    1024KiB time=00:00:01.00 bitrate=8389.0kbits/s speed=0.0106x elapsed=0:01:34.63    \nframe=   32 fps=0.3 q=34.1 size=    1024KiB time=00:00:01.00 bitrate=8389.0kbits/s speed=0.0105x elapsed=0:01:35.33    \nframe=   32 fps=0.3 q=34.1 size=    1024KiB time=00:00:01.00 bitrate=8389.0kbits/s speed=0.0104x elapsed=0:01:36.01    \nframe=   32 fps=0.3 q=34.1 size=    1024KiB time=00:00:01.00 bitrate=8389.0kbits/s speed=0.0103x elapsed=0:01:36.71    \nframe=   32 fps=0.3 q=34.1 size=    1024KiB time=00:00:01.00 bitrate=8389.0kbits/s speed=0.0103x elapsed=0:01:37.25    \nframe=   33 fps=0.3 q=38.1 size=    1024KiB time=00:00:01.03 bitrate=8118.4kbits/s speed=0.0106x elapsed=0:01:37.80    \nframe=   33 fps=0.3 q=38.1 size=    1024KiB time=00:00:01.03 bitrate=8118.4kbits/s speed=0.0105x elapsed=0:01:38.32    \nframe=   33 fps=0.3 q=38.1 size=    1024KiB time=00:00:01.03 bitrate=8118.4kbits/s speed=0.0105x elapsed=0:01:38.85    \nframe=   34 fps=0.3 q=38.1 size=    1024KiB time=00:00:01.06 bitrate=7864.6kbits/s speed=0.0107x elapsed=0:01:39.36    \nframe=   34 fps=0.3 q=38.1 size=    1024KiB time=00:00:01.06 bitrate=7864.6kbits/s speed=0.0107x elapsed=0:01:39.88    \nframe=   34 fps=0.3 q=38.1 size=    1024KiB time=00:00:01.06 bitrate=7864.6kbits/s speed=0.0106x elapsed=0:01:40.44    \nframe=   34 fps=0.3 q=38.1 size=    1024KiB time=00:00:01.06 bitrate=7864.6kbits/s speed=0.0106x elapsed=0:01:40.95    \nframe=   34 fps=0.3 q=38.1 size=    1024KiB time=00:00:01.06 bitrate=7864.6kbits/s speed=0.0105x elapsed=0:01:41.47    \nframe=   34 fps=0.3 q=38.1 size=    1024KiB time=00:00:01.06 bitrate=7864.6kbits/s speed=0.0105x elapsed=0:01:41.99    \nframe=   34 fps=0.3 q=38.1 size=    1024KiB time=00:00:01.06 bitrate=7864.6kbits/s speed=0.0104x elapsed=0:01:42.52    \nframe=   35 fps=0.3 q=38.7 size=    1024KiB time=00:00:01.10 bitrate=7626.3kbits/s speed=0.0107x elapsed=0:01:43.06    \nframe=   35 fps=0.3 q=38.7 size=    1024KiB time=00:00:01.10 bitrate=7626.3kbits/s speed=0.0106x elapsed=0:01:43.58    \nframe=   35 fps=0.3 q=38.7 size=    1024KiB time=00:00:01.10 bitrate=7626.3kbits/s speed=0.0106x elapsed=0:01:44.09    \nframe=   36 fps=0.3 q=33.2 size=    1024KiB time=00:00:01.13 bitrate=7402.0kbits/s speed=0.0108x elapsed=0:01:44.63    \nframe=   36 fps=0.3 q=33.2 size=    1024KiB time=00:00:01.13 bitrate=7402.0kbits/s speed=0.0108x elapsed=0:01:45.16    \nframe=   37 fps=0.4 q=35.9 size=    1280KiB time=00:00:01.16 bitrate=8988.1kbits/s speed=0.011x elapsed=0:01:45.67    \nframe=   38 fps=0.4 q=38.6 size=    1280KiB time=00:00:01.20 bitrate=8738.4kbits/s speed=0.0113x elapsed=0:01:46.21    \nframe=   38 fps=0.4 q=38.6 size=    1280KiB time=00:00:01.20 bitrate=8738.4kbits/s speed=0.0112x elapsed=0:01:46.71    \nframe=   38 fps=0.4 q=38.6 size=    1280KiB time=00:00:01.20 bitrate=8738.4kbits/s speed=0.0112x elapsed=0:01:47.23    \nframe=   39 fps=0.4 q=38.5 size=    1280KiB time=00:00:01.23 bitrate=8502.3kbits/s speed=0.0114x elapsed=0:01:47.77    \nframe=   39 fps=0.4 q=38.5 size=    1280KiB time=00:00:01.23 bitrate=8502.3kbits/s speed=0.0114x elapsed=0:01:48.33    \nframe=   39 fps=0.4 q=38.5 size=    1280KiB time=00:00:01.23 bitrate=8502.3kbits/s speed=0.0113x elapsed=0:01:48.86    \nframe=   39 fps=0.4 q=38.5 size=    1280KiB time=00:00:01.23 bitrate=8502.3kbits/s speed=0.0113x elapsed=0:01:49.40    \nframe=   39 fps=0.4 q=38.5 size=    1280KiB time=00:00:01.23 bitrate=8502.3kbits/s speed=0.0112x elapsed=0:01:49.94    \nframe=   40 fps=0.4 q=38.8 size=    1280KiB time=00:00:01.26 bitrate=8278.5kbits/s speed=0.0115x elapsed=0:01:50.47    \nframe=   40 fps=0.4 q=38.8 size=    1280KiB time=00:00:01.26 bitrate=8278.5kbits/s speed=0.0114x elapsed=0:01:50.99    \nframe=   40 fps=0.4 q=38.8 size=    1280KiB time=00:00:01.26 bitrate=8278.5kbits/s speed=0.0114x elapsed=0:01:51.51    \nframe=   40 fps=0.4 q=38.8 size=    1280KiB time=00:00:01.26 bitrate=8278.5kbits/s speed=0.0113x elapsed=0:01:52.01    \nframe=   41 fps=0.4 q=32.9 size=    1280KiB time=00:00:01.30 bitrate=8066.2kbits/s speed=0.0115x elapsed=0:01:52.55    \nframe=   41 fps=0.4 q=32.9 size=    1280KiB time=00:00:01.30 bitrate=8066.2kbits/s speed=0.0115x elapsed=0:01:53.10    \nframe=   41 fps=0.4 q=32.9 size=    1280KiB time=00:00:01.30 bitrate=8066.2kbits/s speed=0.0114x elapsed=0:01:53.61    \nframe=   42 fps=0.4 q=36.9 size=    1280KiB time=00:00:01.33 bitrate=7864.6kbits/s speed=0.0117x elapsed=0:01:54.15    \nframe=   43 fps=0.4 q=38.7 size=    1280KiB time=00:00:01.36 bitrate=7672.8kbits/s speed=0.0119x elapsed=0:01:54.68    \nframe=   43 fps=0.4 q=38.7 size=    1280KiB time=00:00:01.36 bitrate=7672.8kbits/s speed=0.0119x elapsed=0:01:55.18    \nframe=   43 fps=0.4 q=38.7 size=    1280KiB time=00:00:01.36 bitrate=7672.8kbits/s speed=0.0118x elapsed=0:01:55.70    \nframe=   44 fps=0.4 q=38.7 size=    1280KiB time=00:00:01.36 bitrate=7672.8kbits/s speed=0.0118x elapsed=0:01:56.24    \nframe=   44 fps=0.4 q=38.7 size=    1280KiB time=00:00:01.40 bitrate=7490.1kbits/s speed=0.012x elapsed=0:01:56.77    \nframe=   44 fps=0.4 q=38.7 size=    1280KiB time=00:00:01.40 bitrate=7490.1kbits/s speed=0.0119x elapsed=0:01:57.29    \nframe=   44 fps=0.4 q=38.7 size=    1280KiB time=00:00:01.40 bitrate=7490.1kbits/s speed=0.0119x elapsed=0:01:57.82    \nframe=   44 fps=0.4 q=38.7 size=    1280KiB time=00:00:01.40 bitrate=7490.1kbits/s speed=0.0118x elapsed=0:01:58.34    \nframe=   44 fps=0.4 q=38.7 size=    1280KiB time=00:00:01.40 bitrate=7490.1kbits/s speed=0.0118x elapsed=0:01:58.89    \nframe=   44 fps=0.4 q=38.7 size=    1280KiB time=00:00:01.40 bitrate=7490.1kbits/s speed=0.0117x elapsed=0:01:59.40    \nframe=   45 fps=0.4 q=38.8 size=    1536KiB time=00:00:01.40 bitrate=8988.0kbits/s speed=0.0117x elapsed=0:01:59.94    \nframe=   45 fps=0.4 q=38.8 size=    1536KiB time=00:00:01.43 bitrate=8779.0kbits/s speed=0.0119x elapsed=0:02:00.47    \nframe=   45 fps=0.4 q=38.8 size=    1536KiB time=00:00:01.43 bitrate=8779.0kbits/s speed=0.0118x elapsed=0:02:00.99    \nframe=   46 fps=0.4 q=33.2 size=    1536KiB time=00:00:01.46 bitrate=8579.5kbits/s speed=0.0121x elapsed=0:02:01.52    \nframe=   46 fps=0.4 q=33.2 size=    1536KiB time=00:00:01.46 bitrate=8579.5kbits/s speed=0.012x elapsed=0:02:02.10    \nframe=   46 fps=0.4 q=33.2 size=    1536KiB time=00:00:01.46 bitrate=8579.5kbits/s speed=0.012x elapsed=0:02:02.64    \nframe=   47 fps=0.4 q=37.1 size=    1536KiB time=00:00:01.50 bitrate=8388.8kbits/s speed=0.0122x elapsed=0:02:03.16    \nframe=   47 fps=0.4 q=37.1 size=    1536KiB time=00:00:01.50 bitrate=8388.8kbits/s speed=0.0121x elapsed=0:02:03.70    \nframe=   47 fps=0.4 q=37.1 size=    1536KiB time=00:00:01.50 bitrate=8388.8kbits/s speed=0.0121x elapsed=0:02:04.24    \nframe=   47 fps=0.4 q=37.1 size=    1536KiB time=00:00:01.50 bitrate=8388.8kbits/s speed=0.012x elapsed=0:02:04.80    \nframe=   47 fps=0.4 q=37.1 size=    1536KiB time=00:00:01.50 bitrate=8388.8kbits/s speed=0.012x elapsed=0:02:05.34    \nframe=   48 fps=0.4 q=38.6 size=    1536KiB time=00:00:01.53 bitrate=8206.5kbits/s speed=0.0122x elapsed=0:02:05.91    \nframe=   48 fps=0.4 q=38.6 size=    1536KiB time=00:00:01.53 bitrate=8206.5kbits/s speed=0.0121x elapsed=0:02:06.50    \nframe=   48 fps=0.4 q=38.6 size=    1536KiB time=00:00:01.53 bitrate=8206.5kbits/s speed=0.0121x elapsed=0:02:07.02    \nframe=   48 fps=0.4 q=38.6 size=    1536KiB time=00:00:01.53 bitrate=8206.5kbits/s speed=0.012x elapsed=0:02:07.63    \nframe=   48 fps=0.4 q=38.6 size=    1536KiB time=00:00:01.53 bitrate=8206.5kbits/s speed=0.012x elapsed=0:02:08.19    \nframe=   48 fps=0.4 q=38.6 size=    1536KiB time=00:00:01.53 bitrate=8206.5kbits/s speed=0.0119x elapsed=0:02:08.72    \nframe=   48 fps=0.4 q=38.6 size=    1536KiB time=00:00:01.53 bitrate=8206.5kbits/s speed=0.0119x elapsed=0:02:09.29    \nframe=   48 fps=0.4 q=38.6 size=    1536KiB time=00:00:01.53 bitrate=8206.5kbits/s speed=0.0118x elapsed=0:02:09.97    \nframe=   49 fps=0.4 q=38.8 size=    1536KiB time=00:00:01.56 bitrate=8031.9kbits/s speed=0.012x elapsed=0:02:10.50    \nframe=   49 fps=0.4 q=38.8 size=    1536KiB time=00:00:01.56 bitrate=8031.9kbits/s speed=0.012x elapsed=0:02:11.04    \nframe=   49 fps=0.4 q=38.8 size=    1536KiB time=00:00:01.56 bitrate=8031.9kbits/s speed=0.0119x elapsed=0:02:11.60    \nframe=   49 fps=0.4 q=38.8 size=    1536KiB time=00:00:01.56 bitrate=8031.9kbits/s speed=0.0118x elapsed=0:02:12.27    \nframe=   49 fps=0.4 q=38.8 size=    1536KiB time=00:00:01.56 bitrate=8031.9kbits/s speed=0.0118x elapsed=0:02:12.80    \nframe=   49 fps=0.4 q=38.8 size=    1536KiB time=00:00:01.56 bitrate=8031.9kbits/s speed=0.0117x elapsed=0:02:13.33    \nframe=   49 fps=0.4 q=38.8 size=    1536KiB time=00:00:01.56 bitrate=8031.9kbits/s speed=0.0117x elapsed=0:02:13.90    \nframe=   49 fps=0.4 q=38.8 size=    1536KiB time=00:00:01.56 bitrate=8031.9kbits/s speed=0.0116x elapsed=0:02:14.65    \nframe=   49 fps=0.4 q=38.8 size=    1536KiB time=00:00:01.56 bitrate=8031.9kbits/s speed=0.0116x elapsed=0:02:15.35    \nframe=   49 fps=0.4 q=38.8 size=    1536KiB time=00:00:01.56 bitrate=8031.9kbits/s speed=0.0115x elapsed=0:02:15.92    \nframe=   49 fps=0.4 q=38.8 size=    1536KiB time=00:00:01.56 bitrate=8031.9kbits/s speed=0.0115x elapsed=0:02:16.51    \nframe=   49 fps=0.4 q=38.8 size=    1536KiB time=00:00:01.56 bitrate=8031.9kbits/s speed=0.0114x elapsed=0:02:17.22    \nframe=   49 fps=0.4 q=38.8 size=    1536KiB time=00:00:01.56 bitrate=8031.9kbits/s speed=0.0114x elapsed=0:02:17.87    \nframe=   50 fps=0.4 q=38.7 size=    1536KiB time=00:00:01.60 bitrate=7864.5kbits/s speed=0.0116x elapsed=0:02:18.52    \nframe=   50 fps=0.4 q=38.7 size=    1536KiB time=00:00:01.60 bitrate=7864.5kbits/s speed=0.0115x elapsed=0:02:19.10    \nframe=   50 fps=0.4 q=38.7 size=    1536KiB time=00:00:01.60 bitrate=7864.5kbits/s speed=0.0114x elapsed=0:02:19.83    \nframe=   50 fps=0.4 q=38.7 size=    1536KiB time=00:00:01.60 bitrate=7864.5kbits/s speed=0.0114x elapsed=0:02:20.55    \nframe=   50 fps=0.4 q=38.7 size=    1536KiB time=00:00:01.60 bitrate=7864.5kbits/s speed=0.0113x elapsed=0:02:21.21    \nframe=   50 fps=0.4 q=38.7 size=    1536KiB time=00:00:01.60 bitrate=7864.5kbits/s speed=0.0113x elapsed=0:02:21.71    \nframe=   50 fps=0.4 q=38.7 size=    1536KiB time=00:00:01.60 bitrate=7864.5kbits/s speed=0.0112x elapsed=0:02:22.27    \nframe=   50 fps=0.3 q=38.7 size=    1536KiB time=00:00:01.60 bitrate=7864.5kbits/s speed=0.0112x elapsed=0:02:22.95    \nframe=   50 fps=0.3 q=38.7 size=    1536KiB time=00:00:01.60 bitrate=7864.5kbits/s speed=0.0111x elapsed=0:02:23.58    \nframe=   50 fps=0.3 q=38.7 size=    1536KiB time=00:00:01.60 bitrate=7864.5kbits/s speed=0.0111x elapsed=0:02:24.22    \nframe=   50 fps=0.3 q=38.7 size=    1536KiB time=00:00:01.60 bitrate=7864.5kbits/s speed=0.0111x elapsed=0:02:24.79    \nframe=   50 fps=0.3 q=38.7 size=    1536KiB time=00:00:01.60 bitrate=7864.5kbits/s speed=0.011x elapsed=0:02:25.49    \nframe=   50 fps=0.3 q=38.7 size=    1536KiB time=00:00:01.60 bitrate=7864.5kbits/s speed=0.0109x elapsed=0:02:26.20    \nframe=   50 fps=0.3 q=38.7 size=    1536KiB time=00:00:01.60 bitrate=7864.5kbits/s speed=0.0109x elapsed=0:02:26.90    \nframe=   50 fps=0.3 q=38.7 size=    1536KiB time=00:00:01.60 bitrate=7864.5kbits/s speed=0.0108x elapsed=0:02:27.64    \nframe=   50 fps=0.3 q=38.7 size=    1536KiB time=00:00:01.60 bitrate=7864.5kbits/s speed=0.0108x elapsed=0:02:28.22    \nframe=   50 fps=0.3 q=38.7 size=    1536KiB time=00:00:01.60 bitrate=7864.5kbits/s speed=0.0107x elapsed=0:02:28.87    \nframe=   50 fps=0.3 q=38.7 size=    1536KiB time=00:00:01.60 bitrate=7864.5kbits/s speed=0.0107x elapsed=0:02:29.61    \nframe=   50 fps=0.3 q=38.7 size=    1536KiB time=00:00:01.60 bitrate=7864.5kbits/s speed=0.0106x elapsed=0:02:30.34    \nframe=   50 fps=0.3 q=38.7 size=    1536KiB time=00:00:01.60 bitrate=7864.5kbits/s speed=0.0106x elapsed=0:02:31.02    \nframe=   50 fps=0.3 q=38.7 size=    1536KiB time=00:00:01.60 bitrate=7864.5kbits/s speed=0.0106x elapsed=0:02:31.61    \nframe=   50 fps=0.3 q=38.7 size=    1536KiB time=00:00:01.60 bitrate=7864.5kbits/s speed=0.0105x elapsed=0:02:32.16    \nframe=   50 fps=0.3 q=38.7 size=    1536KiB time=00:00:01.60 bitrate=7864.5kbits/s speed=0.0105x elapsed=0:02:32.72    \nframe=   50 fps=0.3 q=38.7 size=    1536KiB time=00:00:01.60 bitrate=7864.5kbits/s speed=0.0104x elapsed=0:02:33.44    \nframe=   50 fps=0.3 q=38.7 size=    1536KiB time=00:00:01.60 bitrate=7864.5kbits/s speed=0.0104x elapsed=0:02:34.18    \nframe=   50 fps=0.3 q=38.7 size=    1536KiB time=00:00:01.60 bitrate=7864.5kbits/s speed=0.0103x elapsed=0:02:34.82    \nframe=   51 fps=0.3 q=33.0 size=    1536KiB time=00:00:01.63 bitrate=7704.0kbits/s speed=0.0105x elapsed=0:02:35.41    \nframe=   51 fps=0.3 q=33.0 size=    1536KiB time=00:00:01.63 bitrate=7704.0kbits/s speed=0.0105x elapsed=0:02:36.01    \nframe=   51 fps=0.3 q=33.0 size=    1536KiB time=00:00:01.63 bitrate=7704.0kbits/s speed=0.0104x elapsed=0:02:36.69    \nframe=   51 fps=0.3 q=33.0 size=    1536KiB time=00:00:01.63 bitrate=7704.0kbits/s speed=0.0104x elapsed=0:02:37.37    \nframe=   51 fps=0.3 q=33.0 size=    1536KiB time=00:00:01.63 bitrate=7704.0kbits/s speed=0.0103x elapsed=0:02:38.10    \nframe=   51 fps=0.3 q=33.0 size=    1536KiB time=00:00:01.63 bitrate=7704.0kbits/s speed=0.0103x elapsed=0:02:38.80    \nframe=   51 fps=0.3 q=33.0 size=    1536KiB time=00:00:01.63 bitrate=7704.0kbits/s speed=0.0102x elapsed=0:02:39.35    \nframe=   52 fps=0.3 q=37.0 size=    1536KiB time=00:00:01.66 bitrate=7550.0kbits/s speed=0.0104x elapsed=0:02:39.91    \nframe=   52 fps=0.3 q=37.0 size=    1536KiB time=00:00:01.66 bitrate=7550.0kbits/s speed=0.0104x elapsed=0:02:40.44    \nframe=   52 fps=0.3 q=37.0 size=    1536KiB time=00:00:01.66 bitrate=7550.0kbits/s speed=0.0104x elapsed=0:02:40.95    \nframe=   52 fps=0.3 q=37.0 size=    1536KiB time=00:00:01.66 bitrate=7550.0kbits/s speed=0.0103x elapsed=0:02:41.46    \nframe=   52 fps=0.3 q=37.0 size=    1536KiB time=00:00:01.66 bitrate=7550.0kbits/s speed=0.0103x elapsed=0:02:42.01    \nframe=   53 fps=0.3 q=38.8 size=    1792KiB time=00:00:01.70 bitrate=8635.5kbits/s speed=0.0105x elapsed=0:02:42.53    \nframe=   53 fps=0.3 q=38.8 size=    1792KiB time=00:00:01.70 bitrate=8635.5kbits/s speed=0.0104x elapsed=0:02:43.07    \nframe=   53 fps=0.3 q=38.8 size=    1792KiB time=00:00:01.70 bitrate=8635.5kbits/s speed=0.0104x elapsed=0:02:43.62    \nframe=   54 fps=0.3 q=38.8 size=    1792KiB time=00:00:01.73 bitrate=8469.5kbits/s speed=0.0106x elapsed=0:02:44.16    \nframe=   54 fps=0.3 q=38.8 size=    1792KiB time=00:00:01.73 bitrate=8469.5kbits/s speed=0.0105x elapsed=0:02:44.69    \nframe=   54 fps=0.3 q=38.8 size=    1792KiB time=00:00:01.73 bitrate=8469.5kbits/s speed=0.0105x elapsed=0:02:45.20    \nframe=   55 fps=0.3 q=38.7 size=    1792KiB time=00:00:01.76 bitrate=8309.7kbits/s speed=0.0107x elapsed=0:02:45.71    \nframe=   55 fps=0.3 q=38.7 size=    1792KiB time=00:00:01.76 bitrate=8309.7kbits/s speed=0.0106x elapsed=0:02:46.24    \nframe=   55 fps=0.3 q=38.7 size=    1792KiB time=00:00:01.76 bitrate=8309.7kbits/s speed=0.0106x elapsed=0:02:46.76    \nframe=   56 fps=0.3 q=33.0 size=    1792KiB time=00:00:01.80 bitrate=8155.8kbits/s speed=0.0108x elapsed=0:02:47.28    \nframe=   57 fps=0.3 q=37.0 size=    1792KiB time=00:00:01.83 bitrate=8007.5kbits/s speed=0.0109x elapsed=0:02:47.80    \nframe=   57 fps=0.3 q=37.0 size=    1792KiB time=00:00:01.83 bitrate=8007.5kbits/s speed=0.0109x elapsed=0:02:48.34    \nframe=   58 fps=0.3 q=38.8 size=    1792KiB time=00:00:01.86 bitrate=7864.5kbits/s speed=0.0111x elapsed=0:02:48.86    \nframe=   58 fps=0.3 q=38.8 size=    1792KiB time=00:00:01.86 bitrate=7864.5kbits/s speed=0.011x elapsed=0:02:49.37    \nframe=   58 fps=0.3 q=38.8 size=    1792KiB time=00:00:01.86 bitrate=7864.5kbits/s speed=0.011x elapsed=0:02:49.89    \nframe=   58 fps=0.3 q=38.8 size=    1792KiB time=00:00:01.86 bitrate=7864.5kbits/s speed=0.011x elapsed=0:02:50.44    \nframe=   58 fps=0.3 q=38.8 size=    1792KiB time=00:00:01.86 bitrate=7864.5kbits/s speed=0.0109x elapsed=0:02:51.05    \nframe=   58 fps=0.3 q=38.8 size=    1792KiB time=00:00:01.86 bitrate=7864.5kbits/s speed=0.0109x elapsed=0:02:51.63    \nframe=   59 fps=0.3 q=38.7 size=    1792KiB time=00:00:01.90 bitrate=7726.5kbits/s speed=0.011x elapsed=0:02:52.18    \nframe=   60 fps=0.3 q=38.9 size=    1792KiB time=00:00:01.93 bitrate=7593.3kbits/s speed=0.0112x elapsed=0:02:52.69    \nframe=   61 fps=0.4 q=33.0 size=    2048KiB time=00:00:01.96 bitrate=8531.0kbits/s speed=0.0114x elapsed=0:02:53.20    \nframe=   61 fps=0.4 q=33.0 size=    2048KiB time=00:00:01.96 bitrate=8531.0kbits/s speed=0.0113x elapsed=0:02:53.71    \nframe=   61 fps=0.4 q=33.0 size=    2048KiB time=00:00:01.96 bitrate=8531.0kbits/s speed=0.0113x elapsed=0:02:54.24    \nframe=   61 fps=0.3 q=33.0 size=    2048KiB time=00:00:01.96 bitrate=8531.0kbits/s speed=0.0113x elapsed=0:02:54.78    \nframe=   61 fps=0.3 q=33.0 size=    2048KiB time=00:00:01.96 bitrate=8531.0kbits/s speed=0.0112x elapsed=0:02:55.32    \nframe=   61 fps=0.3 q=33.0 size=    2048KiB time=00:00:01.96 bitrate=8531.0kbits/s speed=0.0112x elapsed=0:02:55.87    \nframe=   62 fps=0.4 q=36.9 size=    2048KiB time=00:00:02.00 bitrate=8388.8kbits/s speed=0.0113x elapsed=0:02:56.42    \nframe=   62 fps=0.4 q=36.9 size=    2048KiB time=00:00:02.00 bitrate=8388.8kbits/s speed=0.0113x elapsed=0:02:56.94    \nframe=   62 fps=0.3 q=36.9 size=    2048KiB time=00:00:02.00 bitrate=8388.8kbits/s speed=0.0113x elapsed=0:02:57.51    \nframe=   62 fps=0.3 q=36.9 size=    2048KiB time=00:00:02.00 bitrate=8388.8kbits/s speed=0.0112x elapsed=0:02:58.03    \nframe=   62 fps=0.3 q=36.9 size=    2048KiB time=00:00:02.00 bitrate=8388.8kbits/s speed=0.0112x elapsed=0:02:58.58    \nframe=   62 fps=0.3 q=36.9 size=    2048KiB time=00:00:02.00 bitrate=8388.8kbits/s speed=0.0112x elapsed=0:02:59.13    \nframe=   62 fps=0.3 q=36.9 size=    2048KiB time=00:00:02.00 bitrate=8388.8kbits/s speed=0.0111x elapsed=0:02:59.79    \nframe=   62 fps=0.3 q=36.9 size=    2048KiB time=00:00:02.00 bitrate=8388.8kbits/s speed=0.0111x elapsed=0:03:00.38    \nframe=   62 fps=0.3 q=36.9 size=    2048KiB time=00:00:02.00 bitrate=8388.8kbits/s speed=0.0111x elapsed=0:03:00.92    \nframe=   62 fps=0.3 q=36.9 size=    2048KiB time=00:00:02.00 bitrate=8388.8kbits/s speed=0.011x elapsed=0:03:01.48    \nframe=   62 fps=0.3 q=36.9 size=    2048KiB time=00:00:02.00 bitrate=8388.8kbits/s speed=0.011x elapsed=0:03:02.05    \nframe=   64 fps=0.4 q=38.7 size=    2048KiB time=00:00:02.06 bitrate=8118.2kbits/s speed=0.0113x elapsed=0:03:02.60    \nframe=   64 fps=0.3 q=38.7 size=    2048KiB time=00:00:02.06 bitrate=8118.2kbits/s speed=0.0113x elapsed=0:03:03.17    \nframe=   65 fps=0.4 q=38.6 size=    2048KiB time=00:00:02.10 bitrate=7989.3kbits/s speed=0.0114x elapsed=0:03:03.74    \nframe=   65 fps=0.4 q=38.6 size=    2048KiB time=00:00:02.10 bitrate=7989.3kbits/s speed=0.0114x elapsed=0:03:04.41    \nframe=   65 fps=0.4 q=38.6 size=    2048KiB time=00:00:02.10 bitrate=7989.3kbits/s speed=0.0114x elapsed=0:03:05.01    \nframe=   65 fps=0.4 q=38.6 size=    2048KiB time=00:00:02.10 bitrate=7989.3kbits/s speed=0.0113x elapsed=0:03:05.59    \nframe=   65 fps=0.3 q=38.6 size=    2048KiB time=00:00:02.10 bitrate=7989.3kbits/s speed=0.0113x elapsed=0:03:06.19    \nframe=   65 fps=0.3 q=38.6 size=    2048KiB time=00:00:02.10 bitrate=7989.3kbits/s speed=0.0112x elapsed=0:03:06.89    \nframe=   65 fps=0.3 q=38.6 size=    2048KiB time=00:00:02.10 bitrate=7989.3kbits/s speed=0.0112x elapsed=0:03:07.50    \nframe=   65 fps=0.3 q=38.6 size=    2048KiB time=00:00:02.10 bitrate=7989.3kbits/s speed=0.0112x elapsed=0:03:08.07    \nframe=   65 fps=0.3 q=38.6 size=    2048KiB time=00:00:02.10 bitrate=7989.3kbits/s speed=0.0111x elapsed=0:03:08.66    \nframe=   65 fps=0.3 q=38.6 size=    2048KiB time=00:00:02.10 bitrate=7989.3kbits/s speed=0.0111x elapsed=0:03:09.19    \nframe=   65 fps=0.3 q=38.6 size=    2048KiB time=00:00:02.10 bitrate=7989.3kbits/s speed=0.0111x elapsed=0:03:09.90    \nframe=   65 fps=0.3 q=38.6 size=    2048KiB time=00:00:02.10 bitrate=7989.3kbits/s speed=0.011x elapsed=0:03:10.58    \nframe=   65 fps=0.3 q=38.6 size=    2048KiB time=00:00:02.10 bitrate=7989.3kbits/s speed=0.011x elapsed=0:03:11.14    \nframe=   65 fps=0.3 q=38.6 size=    2048KiB time=00:00:02.10 bitrate=7989.3kbits/s speed=0.011x elapsed=0:03:11.71    \nframe=   65 fps=0.3 q=38.6 size=    2048KiB time=00:00:02.10 bitrate=7989.3kbits/s speed=0.0109x elapsed=0:03:12.25    \nframe=   65 fps=0.3 q=38.6 size=    2048KiB time=00:00:02.10 bitrate=7989.3kbits/s speed=0.0109x elapsed=0:03:12.98    \nframe=   65 fps=0.3 q=38.6 size=    2048KiB time=00:00:02.10 bitrate=7989.3kbits/s speed=0.0108x elapsed=0:03:13.68    \nframe=   65 fps=0.3 q=38.6 size=    2048KiB time=00:00:02.10 bitrate=7989.3kbits/s speed=0.0108x elapsed=0:03:14.23    \nframe=   65 fps=0.3 q=38.6 size=    2048KiB time=00:00:02.10 bitrate=7989.3kbits/s speed=0.0108x elapsed=0:03:14.84    \nframe=   65 fps=0.3 q=38.6 size=    2048KiB time=00:00:02.10 bitrate=7989.3kbits/s speed=0.0107x elapsed=0:03:15.58    \nframe=   65 fps=0.3 q=38.6 size=    2048KiB time=00:00:02.10 bitrate=7989.3kbits/s speed=0.0107x elapsed=0:03:16.29    \nframe=   65 fps=0.3 q=38.6 size=    2048KiB time=00:00:02.10 bitrate=7989.3kbits/s speed=0.0107x elapsed=0:03:16.99    \nframe=   66 fps=0.3 q=32.8 size=    2048KiB time=00:00:02.13 bitrate=7864.5kbits/s speed=0.0108x elapsed=0:03:17.58    \nframe=   66 fps=0.3 q=32.8 size=    2048KiB time=00:00:02.13 bitrate=7864.5kbits/s speed=0.0108x elapsed=0:03:18.14    \nframe=   66 fps=0.3 q=32.8 size=    2048KiB time=00:00:02.13 bitrate=7864.5kbits/s speed=0.0107x elapsed=0:03:18.91    \nframe=   66 fps=0.3 q=32.8 size=    2048KiB time=00:00:02.13 bitrate=7864.5kbits/s speed=0.0107x elapsed=0:03:19.64    \nframe=   66 fps=0.3 q=32.8 size=    2048KiB time=00:00:02.13 bitrate=7864.5kbits/s speed=0.0106x elapsed=0:03:20.34    \nframe=   66 fps=0.3 q=32.8 size=    2048KiB time=00:00:02.13 bitrate=7864.5kbits/s speed=0.0106x elapsed=0:03:20.97    \nframe=   66 fps=0.3 q=32.8 size=    2048KiB time=00:00:02.13 bitrate=7864.5kbits/s speed=0.0106x elapsed=0:03:21.56    \nframe=   66 fps=0.3 q=32.8 size=    2048KiB time=00:00:02.13 bitrate=7864.5kbits/s speed=0.0106x elapsed=0:03:22.13    \nframe=   66 fps=0.3 q=32.8 size=    2048KiB time=00:00:02.13 bitrate=7864.5kbits/s speed=0.0105x elapsed=0:03:22.86    \nframe=   66 fps=0.3 q=32.8 size=    2048KiB time=00:00:02.13 bitrate=7864.5kbits/s speed=0.0105x elapsed=0:03:23.56    \nframe=   66 fps=0.3 q=32.8 size=    2048KiB time=00:00:02.13 bitrate=7864.5kbits/s speed=0.0104x elapsed=0:03:24.22    \nframe=   66 fps=0.3 q=32.8 size=    2048KiB time=00:00:02.13 bitrate=7864.5kbits/s speed=0.0104x elapsed=0:03:24.87    \nframe=   66 fps=0.3 q=32.8 size=    2048KiB time=00:00:02.13 bitrate=7864.5kbits/s speed=0.0104x elapsed=0:03:25.44    \nframe=   66 fps=0.3 q=32.8 size=    2048KiB time=00:00:02.13 bitrate=7864.5kbits/s speed=0.0104x elapsed=0:03:26.02    \nframe=   66 fps=0.3 q=32.8 size=    2048KiB time=00:00:02.13 bitrate=7864.5kbits/s speed=0.0103x elapsed=0:03:26.77    \nframe=   66 fps=0.3 q=32.8 size=    2048KiB time=00:00:02.13 bitrate=7864.5kbits/s speed=0.0103x elapsed=0:03:27.50    \nframe=   66 fps=0.3 q=32.8 size=    2048KiB time=00:00:02.13 bitrate=7864.5kbits/s speed=0.0102x elapsed=0:03:28.19    \nframe=   66 fps=0.3 q=32.8 size=    2048KiB time=00:00:02.13 bitrate=7864.5kbits/s speed=0.0102x elapsed=0:03:28.78    \nframe=   66 fps=0.3 q=32.8 size=    2048KiB time=00:00:02.13 bitrate=7864.5kbits/s speed=0.0102x elapsed=0:03:29.31    \nframe=   66 fps=0.3 q=32.8 size=    2048KiB time=00:00:02.13 bitrate=7864.5kbits/s speed=0.0102x elapsed=0:03:29.87    \nframe=   66 fps=0.3 q=32.8 size=    2048KiB time=00:00:02.13 bitrate=7864.5kbits/s speed=0.0101x elapsed=0:03:30.56    \nframe=   66 fps=0.3 q=32.8 size=    2048KiB time=00:00:02.13 bitrate=7864.5kbits/s speed=0.0101x elapsed=0:03:31.21    \nframe=   66 fps=0.3 q=32.8 size=    2048KiB time=00:00:02.13 bitrate=7864.5kbits/s speed=0.0101x elapsed=0:03:31.89    \nframe=   67 fps=0.3 q=36.9 size=    2048KiB time=00:00:02.16 bitrate=7743.5kbits/s speed=0.0102x elapsed=0:03:32.46    \nframe=   67 fps=0.3 q=36.9 size=    2048KiB time=00:00:02.16 bitrate=7743.5kbits/s speed=0.0102x elapsed=0:03:33.00    \nframe=   67 fps=0.3 q=36.9 size=    2048KiB time=00:00:02.16 bitrate=7743.5kbits/s speed=0.0101x elapsed=0:03:33.56    \nframe=   68 fps=0.3 q=38.9 size=    2048KiB time=00:00:02.20 bitrate=7626.2kbits/s speed=0.0103x elapsed=0:03:34.13    \nframe=   68 fps=0.3 q=38.9 size=    2048KiB time=00:00:02.20 bitrate=7626.2kbits/s speed=0.0102x elapsed=0:03:34.82    \nframe=   68 fps=0.3 q=38.9 size=    2048KiB time=00:00:02.20 bitrate=7626.2kbits/s speed=0.0102x elapsed=0:03:35.49    \nframe=   68 fps=0.3 q=38.9 size=    2048KiB time=00:00:02.20 bitrate=7626.2kbits/s speed=0.0102x elapsed=0:03:36.15    \nframe=   68 fps=0.3 q=38.9 size=    2048KiB time=00:00:02.20 bitrate=7626.2kbits/s speed=0.0102x elapsed=0:03:36.71    \nframe=   68 fps=0.3 q=38.9 size=    2048KiB time=00:00:02.20 bitrate=7626.2kbits/s speed=0.0101x elapsed=0:03:37.33    \nframe=   68 fps=0.3 q=38.9 size=    2048KiB time=00:00:02.20 bitrate=7626.2kbits/s speed=0.0101x elapsed=0:03:37.94    \nframe=   68 fps=0.3 q=38.9 size=    2048KiB time=00:00:02.20 bitrate=7626.2kbits/s speed=0.0101x elapsed=0:03:38.57    \nframe=   68 fps=0.3 q=38.9 size=    2048KiB time=00:00:02.20 bitrate=7626.2kbits/s speed=0.01x elapsed=0:03:39.12    \nframe=   69 fps=0.3 q=38.8 size=    2304KiB time=00:00:02.23 bitrate=8451.4kbits/s speed=0.0102x elapsed=0:03:39.68    \nframe=   69 fps=0.3 q=38.8 size=    2304KiB time=00:00:02.23 bitrate=8451.4kbits/s speed=0.0101x elapsed=0:03:40.22    \nframe=   69 fps=0.3 q=38.8 size=    2304KiB time=00:00:02.23 bitrate=8451.4kbits/s speed=0.0101x elapsed=0:03:40.78    \nframe=   69 fps=0.3 q=38.8 size=    2304KiB time=00:00:02.23 bitrate=8451.4kbits/s speed=0.0101x elapsed=0:03:41.31    \nframe=   70 fps=0.3 q=38.8 size=    2304KiB time=00:00:02.26 bitrate=8327.1kbits/s speed=0.0102x elapsed=0:03:41.85    \nframe=   70 fps=0.3 q=38.8 size=    2304KiB time=00:00:02.26 bitrate=8327.1kbits/s speed=0.0102x elapsed=0:03:42.41    \nframe=   70 fps=0.3 q=38.8 size=    2304KiB time=00:00:02.26 bitrate=8327.1kbits/s speed=0.0102x elapsed=0:03:42.96    \nframe=   70 fps=0.3 q=38.8 size=    2304KiB time=00:00:02.26 bitrate=8327.1kbits/s speed=0.0101x elapsed=0:03:43.52    \nframe=   70 fps=0.3 q=38.8 size=    2304KiB time=00:00:02.26 bitrate=8327.1kbits/s speed=0.0101x elapsed=0:03:44.03    \nframe=   71 fps=0.3 q=33.4 size=    2304KiB time=00:00:02.30 bitrate=8206.4kbits/s speed=0.0102x elapsed=0:03:44.58    \nframe=   71 fps=0.3 q=33.4 size=    2304KiB time=00:00:02.30 bitrate=8206.4kbits/s speed=0.0102x elapsed=0:03:45.11    \nframe=   71 fps=0.3 q=33.4 size=    2304KiB time=00:00:02.30 bitrate=8206.4kbits/s speed=0.0102x elapsed=0:03:45.63    \nframe=   71 fps=0.3 q=33.4 size=    2304KiB time=00:00:02.30 bitrate=8206.4kbits/s speed=0.0102x elapsed=0:03:46.20    \nframe=   71 fps=0.3 q=33.4 size=    2304KiB time=00:00:02.30 bitrate=8206.4kbits/s speed=0.0101x elapsed=0:03:46.72    \nframe=   71 fps=0.3 q=33.4 size=    2304KiB time=00:00:02.30 bitrate=8206.4kbits/s speed=0.0101x elapsed=0:03:47.26    \nframe=   72 fps=0.3 q=36.2 size=    2304KiB time=00:00:02.33 bitrate=8089.2kbits/s speed=0.0102x elapsed=0:03:47.84    \nframe=   72 fps=0.3 q=36.2 size=    2304KiB time=00:00:02.33 bitrate=8089.2kbits/s speed=0.0102x elapsed=0:03:48.40    \nframe=   72 fps=0.3 q=36.2 size=    2304KiB time=00:00:02.33 bitrate=8089.2kbits/s speed=0.0102x elapsed=0:03:48.94    \nframe=   74 fps=0.3 q=39.0 size=    2304KiB time=00:00:02.40 bitrate=7864.5kbits/s speed=0.0105x elapsed=0:03:49.46    \nframe=   74 fps=0.3 q=39.0 size=    2304KiB time=00:00:02.40 bitrate=7864.5kbits/s speed=0.0104x elapsed=0:03:50.05    \nframe=   74 fps=0.3 q=39.0 size=    2304KiB time=00:00:02.40 bitrate=7864.5kbits/s speed=0.0104x elapsed=0:03:50.59    \nframe=   74 fps=0.3 q=39.0 size=    2304KiB time=00:00:02.40 bitrate=7864.5kbits/s speed=0.0104x elapsed=0:03:51.11    \nframe=   75 fps=0.3 q=33.5 size=    2304KiB time=00:00:02.43 bitrate=7756.7kbits/s speed=0.0105x elapsed=0:03:51.62    \nframe=   75 fps=0.3 q=33.5 size=    2304KiB time=00:00:02.43 bitrate=7756.7kbits/s speed=0.0105x elapsed=0:03:52.16    \nframe=   75 fps=0.3 q=33.5 size=    2304KiB time=00:00:02.43 bitrate=7756.7kbits/s speed=0.0105x elapsed=0:03:52.70    \nframe=   75 fps=0.3 q=33.5 size=    2304KiB time=00:00:02.43 bitrate=7756.7kbits/s speed=0.0104x elapsed=0:03:53.23    \nframe=   76 fps=0.3 q=36.6 size=    2304KiB time=00:00:02.46 bitrate=7651.9kbits/s speed=0.0106x elapsed=0:03:53.75    \nframe=   77 fps=0.3 q=38.8 size=    2560KiB time=00:00:02.50 bitrate=8388.7kbits/s speed=0.0107x elapsed=0:03:54.26    \nframe=   77 fps=0.3 q=38.8 size=    2560KiB time=00:00:02.50 bitrate=8388.7kbits/s speed=0.0106x elapsed=0:03:54.77    \nframe=   77 fps=0.3 q=38.8 size=    2560KiB time=00:00:02.50 bitrate=8388.7kbits/s speed=0.0106x elapsed=0:03:55.31    \nframe=   78 fps=0.3 q=39.0 size=    2560KiB time=00:00:02.53 bitrate=8278.4kbits/s speed=0.0107x elapsed=0:03:55.85    \nframe=   79 fps=0.3 q=39.1 size=    2560KiB time=00:00:02.56 bitrate=8170.9kbits/s speed=0.0109x elapsed=0:03:56.35    \nframe=   79 fps=0.3 q=39.1 size=    2560KiB time=00:00:02.56 bitrate=8170.9kbits/s speed=0.0108x elapsed=0:03:56.88    \nframe=   79 fps=0.3 q=39.1 size=    2560KiB time=00:00:02.56 bitrate=8170.9kbits/s speed=0.0108x elapsed=0:03:57.40    \nframe=   79 fps=0.3 q=39.1 size=    2560KiB time=00:00:02.56 bitrate=8170.9kbits/s speed=0.0108x elapsed=0:03:57.92    \nframe=   80 fps=0.3 q=33.1 size=    2560KiB time=00:00:02.60 bitrate=8066.1kbits/s speed=0.0109x elapsed=0:03:58.45    \nframe=   80 fps=0.3 q=33.1 size=    2560KiB time=00:00:02.60 bitrate=8066.1kbits/s speed=0.0109x elapsed=0:03:58.97    \nframe=   80 fps=0.3 q=33.1 size=    2560KiB time=00:00:02.60 bitrate=8066.1kbits/s speed=0.0109x elapsed=0:03:59.50    \nframe=   80 fps=0.3 q=33.1 size=    2560KiB time=00:00:02.60 bitrate=8066.1kbits/s speed=0.0108x elapsed=0:04:00.03    \nframe=   81 fps=0.3 q=34.6 size=    2560KiB time=00:00:02.63 bitrate=7964.0kbits/s speed=0.0109x elapsed=0:04:00.57    \nframe=   81 fps=0.3 q=34.6 size=    2560KiB time=00:00:02.63 bitrate=7964.0kbits/s speed=0.0109x elapsed=0:04:01.09    \nframe=   81 fps=0.3 q=34.6 size=    2560KiB time=00:00:02.63 bitrate=7964.0kbits/s speed=0.0109x elapsed=0:04:01.61    \nframe=   81 fps=0.3 q=34.6 size=    2560KiB time=00:00:02.63 bitrate=7964.0kbits/s speed=0.0109x elapsed=0:04:02.15    \nframe=   83 fps=0.3 q=39.1 size=    2560KiB time=00:00:02.70 bitrate=7767.4kbits/s speed=0.0111x elapsed=0:04:02.67    \nframe=   84 fps=0.3 q=38.9 size=    2560KiB time=00:00:02.73 bitrate=7672.6kbits/s speed=0.0112x elapsed=0:04:03.19    \nframe=   84 fps=0.3 q=38.9 size=    2560KiB time=00:00:02.73 bitrate=7672.6kbits/s speed=0.0112x elapsed=0:04:03.71    \nframe=   84 fps=0.3 q=38.9 size=    2560KiB time=00:00:02.73 bitrate=7672.6kbits/s speed=0.0112x elapsed=0:04:04.24    \nframe=   84 fps=0.3 q=38.9 size=    2560KiB time=00:00:02.73 bitrate=7672.6kbits/s speed=0.0112x elapsed=0:04:04.75    \nframe=   84 fps=0.3 q=38.9 size=    2560KiB time=00:00:02.73 bitrate=7672.6kbits/s speed=0.0111x elapsed=0:04:05.28    \nframe=   85 fps=0.3 q=33.1 size=    2560KiB time=00:00:02.76 bitrate=7580.2kbits/s speed=0.0113x elapsed=0:04:05.80    \nframe=   85 fps=0.3 q=33.1 size=    2560KiB time=00:00:02.76 bitrate=7580.2kbits/s speed=0.0112x elapsed=0:04:06.32    \nframe=   85 fps=0.3 q=33.1 size=    2560KiB time=00:00:02.76 bitrate=7580.2kbits/s speed=0.0112x elapsed=0:04:06.83    \nframe=   85 fps=0.3 q=33.1 size=    2560KiB time=00:00:02.76 bitrate=7580.2kbits/s speed=0.0112x elapsed=0:04:07.34    \nframe=   86 fps=0.3 q=36.4 size=    2816KiB time=00:00:02.80 bitrate=8238.9kbits/s speed=0.0113x elapsed=0:04:07.88    \nframe=   86 fps=0.3 q=36.4 size=    2816KiB time=00:00:02.80 bitrate=8238.9kbits/s speed=0.0113x elapsed=0:04:08.42    \nframe=   86 fps=0.3 q=36.4 size=    2816KiB time=00:00:02.80 bitrate=8238.9kbits/s speed=0.0112x elapsed=0:04:08.94    \nframe=   86 fps=0.3 q=36.4 size=    2816KiB time=00:00:02.80 bitrate=8238.9kbits/s speed=0.0112x elapsed=0:04:09.45    \nframe=   86 fps=0.3 q=36.4 size=    2816KiB time=00:00:02.80 bitrate=8238.9kbits/s speed=0.0112x elapsed=0:04:09.98    \nframe=   88 fps=0.4 q=38.9 size=    2816KiB time=00:00:02.86 bitrate=8047.3kbits/s speed=0.0114x elapsed=0:04:10.49    \nframe=   89 fps=0.4 q=33.1 size=    2816KiB time=00:00:02.90 bitrate=7954.8kbits/s speed=0.0116x elapsed=0:04:11.01    \nframe=   89 fps=0.4 q=33.1 size=    2816KiB time=00:00:02.90 bitrate=7954.8kbits/s speed=0.0115x elapsed=0:04:11.55    \nframe=   89 fps=0.4 q=33.1 size=    2816KiB time=00:00:02.90 bitrate=7954.8kbits/s speed=0.0115x elapsed=0:04:12.09    \nframe=   89 fps=0.4 q=33.1 size=    2816KiB time=00:00:02.90 bitrate=7954.8kbits/s speed=0.0115x elapsed=0:04:12.59    \nframe=   90 fps=0.4 q=36.4 size=    2816KiB time=00:00:02.93 bitrate=7864.4kbits/s speed=0.0116x elapsed=0:04:13.11    \nframe=   90 fps=0.4 q=36.4 size=    2816KiB time=00:00:02.93 bitrate=7864.4kbits/s speed=0.0116x elapsed=0:04:13.65    \nframe=   90 fps=0.4 q=36.4 size=    2816KiB time=00:00:02.93 bitrate=7864.4kbits/s speed=0.0115x elapsed=0:04:14.15    \nframe=   90 fps=0.4 q=36.4 size=    2816KiB time=00:00:02.93 bitrate=7864.4kbits/s speed=0.0115x elapsed=0:04:14.68    \nframe=   92 fps=0.4 q=38.8 size=    2816KiB time=00:00:03.00 bitrate=7689.7kbits/s speed=0.0118x elapsed=0:04:15.20    \nframe=   93 fps=0.4 q=38.9 size=    2816KiB time=00:00:03.03 bitrate=7605.2kbits/s speed=0.0119x elapsed=0:04:15.72    \nframe=   93 fps=0.4 q=38.9 size=    2816KiB time=00:00:03.03 bitrate=7605.2kbits/s speed=0.0118x elapsed=0:04:16.25    \nframe=   93 fps=0.4 q=38.9 size=    2816KiB time=00:00:03.03 bitrate=7605.2kbits/s speed=0.0118x elapsed=0:04:16.76    \nframe=   93 fps=0.4 q=38.9 size=    2816KiB time=00:00:03.03 bitrate=7605.2kbits/s speed=0.0118x elapsed=0:04:17.29    \nframe=   93 fps=0.4 q=38.9 size=    2816KiB time=00:00:03.03 bitrate=7605.2kbits/s speed=0.0118x elapsed=0:04:17.79    \nframe=   93 fps=0.4 q=38.9 size=    2816KiB time=00:00:03.03 bitrate=7605.2kbits/s speed=0.0117x elapsed=0:04:18.31    \nframe=   93 fps=0.4 q=38.9 size=    2816KiB time=00:00:03.03 bitrate=7605.2kbits/s speed=0.0117x elapsed=0:04:18.85    \nframe=   94 fps=0.4 q=33.2 size=    2816KiB time=00:00:03.06 bitrate=7522.5kbits/s speed=0.0118x elapsed=0:04:19.40    \nframe=   94 fps=0.4 q=33.2 size=    2816KiB time=00:00:03.06 bitrate=7522.5kbits/s speed=0.0118x elapsed=0:04:19.97    \nframe=   94 fps=0.4 q=33.2 size=    2816KiB time=00:00:03.06 bitrate=7522.5kbits/s speed=0.0118x elapsed=0:04:20.49    \nframe=   94 fps=0.4 q=33.2 size=    2816KiB time=00:00:03.06 bitrate=7522.5kbits/s speed=0.0117x elapsed=0:04:20.99    \nframe=   95 fps=0.4 q=36.4 size=    3072KiB time=00:00:03.10 bitrate=8118.1kbits/s speed=0.0119x elapsed=0:04:21.53    \nframe=   95 fps=0.4 q=36.4 size=    3072KiB time=00:00:03.10 bitrate=8118.1kbits/s speed=0.0118x elapsed=0:04:22.06    \nframe=   95 fps=0.4 q=36.4 size=    3072KiB time=00:00:03.10 bitrate=8118.1kbits/s speed=0.0118x elapsed=0:04:22.60    \nframe=   96 fps=0.4 q=38.6 size=    3072KiB time=00:00:03.13 bitrate=8031.8kbits/s speed=0.0119x elapsed=0:04:23.15    \nframe=   96 fps=0.4 q=38.6 size=    3072KiB time=00:00:03.13 bitrate=8031.8kbits/s speed=0.0119x elapsed=0:04:23.71    \nframe=   96 fps=0.4 q=38.6 size=    3072KiB time=00:00:03.13 bitrate=8031.8kbits/s speed=0.0119x elapsed=0:04:24.24    \nframe=   96 fps=0.4 q=38.6 size=    3072KiB time=00:00:03.13 bitrate=8031.8kbits/s speed=0.0118x elapsed=0:04:24.83    \nframe=   96 fps=0.4 q=38.6 size=    3072KiB time=00:00:03.13 bitrate=8031.8kbits/s speed=0.0118x elapsed=0:04:25.42    \nframe=   96 fps=0.4 q=38.6 size=    3072KiB time=00:00:03.13 bitrate=8031.8kbits/s speed=0.0118x elapsed=0:04:25.99    \nframe=   96 fps=0.4 q=38.6 size=    3072KiB time=00:00:03.13 bitrate=8031.8kbits/s speed=0.0118x elapsed=0:04:26.59    \nframe=   96 fps=0.4 q=38.6 size=    3072KiB time=00:00:03.13 bitrate=8031.8kbits/s speed=0.0117x elapsed=0:04:27.20    \nframe=   96 fps=0.4 q=38.6 size=    3072KiB time=00:00:03.13 bitrate=8031.8kbits/s speed=0.0117x elapsed=0:04:27.82    \nframe=   96 fps=0.4 q=38.6 size=    3072KiB time=00:00:03.13 bitrate=8031.8kbits/s speed=0.0117x elapsed=0:04:28.40    \nframe=   96 fps=0.4 q=38.6 size=    3072KiB time=00:00:03.13 bitrate=8031.8kbits/s speed=0.0116x elapsed=0:04:28.97    \nframe=   98 fps=0.4 q=38.8 size=    3072KiB time=00:00:03.20 bitrate=7864.4kbits/s speed=0.0119x elapsed=0:04:29.54    \nframe=   98 fps=0.4 q=38.8 size=    3072KiB time=00:00:03.20 bitrate=7864.4kbits/s speed=0.0118x elapsed=0:04:30.09    \nframe=   98 fps=0.4 q=38.8 size=    3072KiB time=00:00:03.20 bitrate=7864.4kbits/s speed=0.0118x elapsed=0:04:30.68    \nframe=   98 fps=0.4 q=38.8 size=    3072KiB time=00:00:03.20 bitrate=7864.4kbits/s speed=0.0118x elapsed=0:04:31.28    \nframe=   99 fps=0.4 q=32.9 size=    3072KiB time=00:00:03.23 bitrate=7783.4kbits/s speed=0.0119x elapsed=0:04:31.86    \nframe=   99 fps=0.4 q=32.9 size=    3072KiB time=00:00:03.23 bitrate=7783.4kbits/s speed=0.0119x elapsed=0:04:32.42    \nframe=   99 fps=0.4 q=32.9 size=    3072KiB time=00:00:03.23 bitrate=7783.4kbits/s speed=0.0118x elapsed=0:04:33.05    \nframe=   99 fps=0.4 q=32.9 size=    3072KiB time=00:00:03.23 bitrate=7783.4kbits/s speed=0.0118x elapsed=0:04:33.59    \nframe=   99 fps=0.4 q=32.9 size=    3072KiB time=00:00:03.23 bitrate=7783.4kbits/s speed=0.0118x elapsed=0:04:34.16    \nframe=   99 fps=0.4 q=32.9 size=    3072KiB time=00:00:03.23 bitrate=7783.4kbits/s speed=0.0118x elapsed=0:04:34.74    \nframe=   99 fps=0.4 q=32.9 size=    3072KiB time=00:00:03.23 bitrate=7783.4kbits/s speed=0.0117x elapsed=0:04:35.28    \nframe=   99 fps=0.4 q=32.9 size=    3072KiB time=00:00:03.23 bitrate=7783.4kbits/s speed=0.0117x elapsed=0:04:35.87    \nframe=   99 fps=0.4 q=32.9 size=    3072KiB time=00:00:03.23 bitrate=7783.4kbits/s speed=0.0117x elapsed=0:04:36.42    \nframe=   99 fps=0.4 q=32.9 size=    3072KiB time=00:00:03.23 bitrate=7783.4kbits/s speed=0.0117x elapsed=0:04:36.93    \nframe=   99 fps=0.4 q=32.9 size=    3072KiB time=00:00:03.23 bitrate=7783.4kbits/s speed=0.0117x elapsed=0:04:37.46    \nframe=   99 fps=0.4 q=32.9 size=    3072KiB time=00:00:03.23 bitrate=7783.4kbits/s speed=0.0116x elapsed=0:04:38.09    \nframe=  100 fps=0.4 q=34.6 size=    3072KiB time=00:00:03.26 bitrate=7703.9kbits/s speed=0.0117x elapsed=0:04:38.65    \nframe=  100 fps=0.4 q=34.6 size=    3072KiB time=00:00:03.26 bitrate=7703.9kbits/s speed=0.0117x elapsed=0:04:39.19    \nframe=  100 fps=0.4 q=34.6 size=    3072KiB time=00:00:03.26 bitrate=7703.9kbits/s speed=0.0117x elapsed=0:04:39.75    \nframe=  100 fps=0.4 q=34.6 size=    3072KiB time=00:00:03.26 bitrate=7703.9kbits/s speed=0.0116x elapsed=0:04:40.40    \nframe=  100 fps=0.4 q=34.6 size=    3072KiB time=00:00:03.26 bitrate=7703.9kbits/s speed=0.0116x elapsed=0:04:41.03    \nframe=  100 fps=0.4 q=34.6 size=    3072KiB time=00:00:03.26 bitrate=7703.9kbits/s speed=0.0116x elapsed=0:04:41.58    \nframe=  100 fps=0.4 q=34.6 size=    3072KiB time=00:00:03.26 bitrate=7703.9kbits/s speed=0.0116x elapsed=0:04:42.15    \nframe=  100 fps=0.4 q=34.6 size=    3072KiB time=00:00:03.26 bitrate=7703.9kbits/s speed=0.0116x elapsed=0:04:42.81    \nframe=  100 fps=0.4 q=34.6 size=    3072KiB time=00:00:03.26 bitrate=7703.9kbits/s speed=0.0115x elapsed=0:04:43.45    \nframe=  100 fps=0.4 q=34.6 size=    3072KiB time=00:00:03.26 bitrate=7703.9kbits/s speed=0.0115x elapsed=0:04:43.97    \nframe=  100 fps=0.4 q=34.6 size=    3072KiB time=00:00:03.26 bitrate=7703.9kbits/s speed=0.0115x elapsed=0:04:44.54    \nframe=  100 fps=0.4 q=34.6 size=    3072KiB time=00:00:03.26 bitrate=7703.9kbits/s speed=0.0115x elapsed=0:04:45.20    \nframe=  100 fps=0.3 q=34.6 size=    3072KiB time=00:00:03.26 bitrate=7703.9kbits/s speed=0.0114x elapsed=0:04:45.83    \nframe=  100 fps=0.3 q=34.6 size=    3072KiB time=00:00:03.26 bitrate=7703.9kbits/s speed=0.0114x elapsed=0:04:46.36    \nframe=  101 fps=0.4 q=38.8 size=    3072KiB time=00:00:03.30 bitrate=7626.1kbits/s speed=0.0115x elapsed=0:04:46.90    \nframe=  101 fps=0.4 q=38.8 size=    3072KiB time=00:00:03.30 bitrate=7626.1kbits/s speed=0.0115x elapsed=0:04:47.50    \nframe=  101 fps=0.4 q=38.8 size=    3072KiB time=00:00:03.30 bitrate=7626.1kbits/s speed=0.0115x elapsed=0:04:48.15    \nframe=  101 fps=0.3 q=38.8 size=    3072KiB time=00:00:03.30 bitrate=7626.1kbits/s speed=0.0114x elapsed=0:04:48.78    \nframe=  103 fps=0.4 q=38.8 size=    3328KiB time=00:00:03.36 bitrate=8098.0kbits/s speed=0.0116x elapsed=0:04:49.31    \nframe=  103 fps=0.4 q=38.8 size=    3328KiB time=00:00:03.36 bitrate=8098.0kbits/s speed=0.0116x elapsed=0:04:49.85    \nframe=  103 fps=0.4 q=38.8 size=    3328KiB time=00:00:03.36 bitrate=8098.0kbits/s speed=0.0116x elapsed=0:04:50.50    \nframe=  103 fps=0.4 q=38.8 size=    3328KiB time=00:00:03.36 bitrate=8098.0kbits/s speed=0.0116x elapsed=0:04:51.16    \nframe=  103 fps=0.4 q=38.8 size=    3328KiB time=00:00:03.36 bitrate=8098.0kbits/s speed=0.0115x elapsed=0:04:51.72    \nframe=  103 fps=0.4 q=38.8 size=    3328KiB time=00:00:03.36 bitrate=8098.0kbits/s speed=0.0115x elapsed=0:04:52.24    \nframe=  103 fps=0.4 q=38.8 size=    3328KiB time=00:00:03.36 bitrate=8098.0kbits/s speed=0.0115x elapsed=0:04:52.78    \nframe=  103 fps=0.4 q=38.8 size=    3328KiB time=00:00:03.36 bitrate=8098.0kbits/s speed=0.0115x elapsed=0:04:53.43    \nframe=  103 fps=0.4 q=38.8 size=    3328KiB time=00:00:03.36 bitrate=8098.0kbits/s speed=0.0114x elapsed=0:04:54.04    \nframe=  103 fps=0.3 q=38.8 size=    3328KiB time=00:00:03.36 bitrate=8098.0kbits/s speed=0.0114x elapsed=0:04:54.59    \nframe=  103 fps=0.3 q=38.8 size=    3328KiB time=00:00:03.36 bitrate=8098.0kbits/s speed=0.0114x elapsed=0:04:55.14    \nframe=  103 fps=0.3 q=38.8 size=    3328KiB time=00:00:03.36 bitrate=8098.0kbits/s speed=0.0114x elapsed=0:04:55.66    \nframe=  103 fps=0.3 q=38.8 size=    3328KiB time=00:00:03.36 bitrate=8098.0kbits/s speed=0.0114x elapsed=0:04:56.20    \nframe=  104 fps=0.4 q=32.9 size=    3328KiB time=00:00:03.40 bitrate=8018.6kbits/s speed=0.0115x elapsed=0:04:56.76    \nframe=  104 fps=0.3 q=32.9 size=    3328KiB time=00:00:03.40 bitrate=8018.6kbits/s speed=0.0114x elapsed=0:04:57.38    \nframe=  104 fps=0.3 q=32.9 size=    3328KiB time=00:00:03.40 bitrate=8018.6kbits/s speed=0.0114x elapsed=0:04:58.03    \nframe=  104 fps=0.3 q=32.9 size=    3328KiB time=00:00:03.40 bitrate=8018.6kbits/s speed=0.0114x elapsed=0:04:58.71    \nframe=  104 fps=0.3 q=32.9 size=    3328KiB time=00:00:03.40 bitrate=8018.6kbits/s speed=0.0114x elapsed=0:04:59.29    \nframe=  104 fps=0.3 q=32.9 size=    3328KiB time=00:00:03.40 bitrate=8018.6kbits/s speed=0.0113x elapsed=0:05:00.00    \nframe=  104 fps=0.3 q=32.9 size=    3328KiB time=00:00:03.40 bitrate=8018.6kbits/s speed=0.0113x elapsed=0:05:00.60    \nframe=  104 fps=0.3 q=32.9 size=    3328KiB time=00:00:03.40 bitrate=8018.6kbits/s speed=0.0113x elapsed=0:05:01.19    \nframe=  104 fps=0.3 q=32.9 size=    3328KiB time=00:00:03.40 bitrate=8018.6kbits/s speed=0.0113x elapsed=0:05:01.75    \nframe=  104 fps=0.3 q=32.9 size=    3328KiB time=00:00:03.40 bitrate=8018.6kbits/s speed=0.0112x elapsed=0:05:02.30    \nframe=  104 fps=0.3 q=32.9 size=    3328KiB time=00:00:03.40 bitrate=8018.6kbits/s speed=0.0112x elapsed=0:05:02.84    \nframe=  104 fps=0.3 q=32.9 size=    3328KiB time=00:00:03.40 bitrate=8018.6kbits/s speed=0.0112x elapsed=0:05:03.39    \nframe=  104 fps=0.3 q=32.9 size=    3328KiB time=00:00:03.40 bitrate=8018.6kbits/s speed=0.0112x elapsed=0:05:03.92    \nframe=  104 fps=0.3 q=32.9 size=    3328KiB time=00:00:03.40 bitrate=8018.6kbits/s speed=0.0112x elapsed=0:05:04.47    \nframe=  104 fps=0.3 q=32.9 size=    3328KiB time=00:00:03.40 bitrate=8018.6kbits/s speed=0.0111x elapsed=0:05:04.98    \nframe=  104 fps=0.3 q=32.9 size=    3328KiB time=00:00:03.40 bitrate=8018.6kbits/s speed=0.0111x elapsed=0:05:05.55    \nframe=  105 fps=0.3 q=37.1 size=    3328KiB time=00:00:03.43 bitrate=7940.8kbits/s speed=0.0112x elapsed=0:05:06.09    \nframe=  105 fps=0.3 q=37.1 size=    3328KiB time=00:00:03.43 bitrate=7940.8kbits/s speed=0.0112x elapsed=0:05:06.64    \nframe=  106 fps=0.3 q=38.8 size=    3328KiB time=00:00:03.46 bitrate=7864.4kbits/s speed=0.0113x elapsed=0:05:07.15    \nframe=  106 fps=0.3 q=38.8 size=    3328KiB time=00:00:03.46 bitrate=7864.4kbits/s speed=0.0113x elapsed=0:05:07.69    \nframe=  106 fps=0.3 q=38.8 size=    3328KiB time=00:00:03.46 bitrate=7864.4kbits/s speed=0.0112x elapsed=0:05:08.21    \nframe=  106 fps=0.3 q=38.8 size=    3328KiB time=00:00:03.46 bitrate=7864.4kbits/s speed=0.0112x elapsed=0:05:08.75    \nframe=  106 fps=0.3 q=38.8 size=    3328KiB time=00:00:03.46 bitrate=7864.4kbits/s speed=0.0112x elapsed=0:05:09.30    \nframe=  107 fps=0.3 q=38.7 size=    3328KiB time=00:00:03.50 bitrate=7789.5kbits/s speed=0.0113x elapsed=0:05:09.84    \nframe=  108 fps=0.3 q=38.5 size=    3328KiB time=00:00:03.53 bitrate=7716.0kbits/s speed=0.0114x elapsed=0:05:10.38    \nframe=  108 fps=0.3 q=38.5 size=    3328KiB time=00:00:03.53 bitrate=7716.0kbits/s speed=0.0114x elapsed=0:05:10.92    \nframe=  108 fps=0.3 q=38.5 size=    3328KiB time=00:00:03.53 bitrate=7716.0kbits/s speed=0.0113x elapsed=0:05:11.47    \nframe=  109 fps=0.3 q=33.1 size=    3328KiB time=00:00:03.56 bitrate=7643.9kbits/s speed=0.0114x elapsed=0:05:12.00    \nframe=  109 fps=0.3 q=33.1 size=    3328KiB time=00:00:03.56 bitrate=7643.9kbits/s speed=0.0114x elapsed=0:05:12.52    \nframe=  109 fps=0.3 q=33.1 size=    3328KiB time=00:00:03.56 bitrate=7643.9kbits/s speed=0.0114x elapsed=0:05:13.08    \nframe=  109 fps=0.3 q=33.1 size=    3328KiB time=00:00:03.56 bitrate=7643.9kbits/s speed=0.0114x elapsed=0:05:13.60    \nframe=  110 fps=0.4 q=36.7 size=    3328KiB time=00:00:03.60 bitrate=7573.1kbits/s speed=0.0115x elapsed=0:05:14.13    \nframe=  110 fps=0.3 q=36.7 size=    3328KiB time=00:00:03.60 bitrate=7573.1kbits/s speed=0.0114x elapsed=0:05:14.66    \nframe=  110 fps=0.3 q=36.7 size=    3328KiB time=00:00:03.60 bitrate=7573.1kbits/s speed=0.0114x elapsed=0:05:15.21    \nframe=  111 fps=0.4 q=38.6 size=    3584KiB time=00:00:03.63 bitrate=8080.9kbits/s speed=0.0115x elapsed=0:05:15.72    \nframe=  111 fps=0.4 q=38.6 size=    3584KiB time=00:00:03.63 bitrate=8080.9kbits/s speed=0.0115x elapsed=0:05:16.25    \nframe=  111 fps=0.4 q=38.6 size=    3584KiB time=00:00:03.63 bitrate=8080.9kbits/s speed=0.0115x elapsed=0:05:16.79    \nframe=  113 fps=0.4 q=38.7 size=    3584KiB time=00:00:03.70 bitrate=7935.3kbits/s speed=0.0117x elapsed=0:05:17.31    \nframe=  113 fps=0.4 q=38.7 size=    3584KiB time=00:00:03.70 bitrate=7935.3kbits/s speed=0.0116x elapsed=0:05:17.84    \nframe=  113 fps=0.4 q=38.7 size=    3584KiB time=00:00:03.70 bitrate=7935.3kbits/s speed=0.0116x elapsed=0:05:18.36    \nframe=  113 fps=0.4 q=38.7 size=    3584KiB time=00:00:03.70 bitrate=7935.3kbits/s speed=0.0116x elapsed=0:05:18.88    \nframe=  113 fps=0.4 q=38.7 size=    3584KiB time=00:00:03.70 bitrate=7935.3kbits/s speed=0.0116x elapsed=0:05:19.43    \nframe=  113 fps=0.4 q=38.7 size=    3584KiB time=00:00:03.70 bitrate=7935.3kbits/s speed=0.0116x elapsed=0:05:19.96    \nframe=  113 fps=0.4 q=38.7 size=    3584KiB time=00:00:03.70 bitrate=7935.3kbits/s speed=0.0115x elapsed=0:05:20.48    \nframe=  113 fps=0.4 q=38.7 size=    3584KiB time=00:00:03.70 bitrate=7935.3kbits/s speed=0.0115x elapsed=0:05:21.01    \nframe=  113 fps=0.4 q=38.7 size=    3584KiB time=00:00:03.70 bitrate=7935.3kbits/s speed=0.0115x elapsed=0:05:21.52    \nframe=  114 fps=0.4 q=33.1 size=    3584KiB time=00:00:03.73 bitrate=7864.4kbits/s speed=0.0116x elapsed=0:05:22.06    \nframe=  114 fps=0.4 q=33.1 size=    3584KiB time=00:00:03.73 bitrate=7864.4kbits/s speed=0.0116x elapsed=0:05:22.62    \nframe=  114 fps=0.4 q=33.1 size=    3584KiB time=00:00:03.73 bitrate=7864.4kbits/s speed=0.0116x elapsed=0:05:23.13    \nframe=  114 fps=0.4 q=33.1 size=    3584KiB time=00:00:03.73 bitrate=7864.4kbits/s speed=0.0115x elapsed=0:05:23.72    \nframe=  114 fps=0.4 q=33.1 size=    3584KiB time=00:00:03.73 bitrate=7864.4kbits/s speed=0.0115x elapsed=0:05:24.39    \nframe=  114 fps=0.4 q=33.1 size=    3584KiB time=00:00:03.73 bitrate=7864.4kbits/s speed=0.0115x elapsed=0:05:24.96    \nframe=  114 fps=0.4 q=33.1 size=    3584KiB time=00:00:03.73 bitrate=7864.4kbits/s speed=0.0115x elapsed=0:05:25.52    \nframe=  114 fps=0.3 q=33.1 size=    3584KiB time=00:00:03.73 bitrate=7864.4kbits/s speed=0.0114x elapsed=0:05:26.13    \nframe=  114 fps=0.3 q=33.1 size=    3584KiB time=00:00:03.73 bitrate=7864.4kbits/s speed=0.0114x elapsed=0:05:26.69    \nframe=  114 fps=0.3 q=33.1 size=    3584KiB time=00:00:03.73 bitrate=7864.4kbits/s speed=0.0114x elapsed=0:05:27.26    \nframe=  114 fps=0.3 q=33.1 size=    3584KiB time=00:00:03.73 bitrate=7864.4kbits/s speed=0.0114x elapsed=0:05:27.80    \nframe=  114 fps=0.3 q=33.1 size=    3584KiB time=00:00:03.73 bitrate=7864.4kbits/s speed=0.0114x elapsed=0:05:28.32    \nframe=  114 fps=0.3 q=33.1 size=    3584KiB time=00:00:03.73 bitrate=7864.4kbits/s speed=0.0114x elapsed=0:05:28.87    \nframe=  114 fps=0.3 q=33.1 size=    3584KiB time=00:00:03.73 bitrate=7864.4kbits/s speed=0.0113x elapsed=0:05:29.47    \nframe=  115 fps=0.3 q=36.6 size=    3584KiB time=00:00:03.76 bitrate=7794.8kbits/s speed=0.0114x elapsed=0:05:30.02    \nframe=  115 fps=0.3 q=36.6 size=    3584KiB time=00:00:03.76 bitrate=7794.8kbits/s speed=0.0114x elapsed=0:05:30.56    \nframe=  115 fps=0.3 q=36.6 size=    3584KiB time=00:00:03.76 bitrate=7794.8kbits/s speed=0.0114x elapsed=0:05:31.12    \nframe=  115 fps=0.3 q=36.6 size=    3584KiB time=00:00:03.76 bitrate=7794.8kbits/s speed=0.0114x elapsed=0:05:31.72    \nframe=  115 fps=0.3 q=36.6 size=    3584KiB time=00:00:03.76 bitrate=7794.8kbits/s speed=0.0113x elapsed=0:05:32.27    \nframe=  115 fps=0.3 q=36.6 size=    3584KiB time=00:00:03.76 bitrate=7794.8kbits/s speed=0.0113x elapsed=0:05:32.85    \nframe=  115 fps=0.3 q=36.6 size=    3584KiB time=00:00:03.76 bitrate=7794.8kbits/s speed=0.0113x elapsed=0:05:33.41    \nframe=  115 fps=0.3 q=36.6 size=    3584KiB time=00:00:03.76 bitrate=7794.8kbits/s speed=0.0113x elapsed=0:05:33.96    \nframe=  115 fps=0.3 q=36.6 size=    3584KiB time=00:00:03.76 bitrate=7794.8kbits/s speed=0.0113x elapsed=0:05:34.54    \nframe=  115 fps=0.3 q=36.6 size=    3584KiB time=00:00:03.76 bitrate=7794.8kbits/s speed=0.0112x elapsed=0:05:35.07    \nframe=  115 fps=0.3 q=36.6 size=    3584KiB time=00:00:03.76 bitrate=7794.8kbits/s speed=0.0112x elapsed=0:05:35.60    \nframe=  115 fps=0.3 q=36.6 size=    3584KiB time=00:00:03.76 bitrate=7794.8kbits/s speed=0.0112x elapsed=0:05:36.13    \nframe=  116 fps=0.3 q=38.1 size=    3584KiB time=00:00:03.80 bitrate=7726.4kbits/s speed=0.0113x elapsed=0:05:36.69    \nframe=  116 fps=0.3 q=38.1 size=    3584KiB time=00:00:03.80 bitrate=7726.4kbits/s speed=0.0113x elapsed=0:05:37.34    \nframe=  116 fps=0.3 q=38.1 size=    3584KiB time=00:00:03.80 bitrate=7726.4kbits/s speed=0.0112x elapsed=0:05:37.97    \nframe=  116 fps=0.3 q=38.1 size=    3584KiB time=00:00:03.80 bitrate=7726.4kbits/s speed=0.0112x elapsed=0:05:38.52    \nframe=  116 fps=0.3 q=38.1 size=    3584KiB time=00:00:03.80 bitrate=7726.4kbits/s speed=0.0112x elapsed=0:05:39.09    \nframe=  117 fps=0.3 q=38.4 size=    3584KiB time=00:00:03.83 bitrate=7659.3kbits/s speed=0.0113x elapsed=0:05:39.64    \nframe=  117 fps=0.3 q=38.4 size=    3584KiB time=00:00:03.83 bitrate=7659.3kbits/s speed=0.0113x elapsed=0:05:40.27    \nframe=  118 fps=0.3 q=38.0 size=    3584KiB time=00:00:03.83 bitrate=7659.3kbits/s speed=0.0112x elapsed=0:05:40.94    \nframe=  118 fps=0.3 q=38.0 size=    3584KiB time=00:00:03.86 bitrate=7593.2kbits/s speed=0.0113x elapsed=0:05:41.50    \nframe=  118 fps=0.3 q=38.0 size=    3584KiB time=00:00:03.86 bitrate=7593.2kbits/s speed=0.0113x elapsed=0:05:42.07    \nframe=  118 fps=0.3 q=38.0 size=    3584KiB time=00:00:03.86 bitrate=7593.2kbits/s speed=0.0113x elapsed=0:05:42.63    \nframe=  118 fps=0.3 q=38.0 size=    3584KiB time=00:00:03.86 bitrate=7593.2kbits/s speed=0.0113x elapsed=0:05:43.36    \nframe=  118 fps=0.3 q=38.0 size=    3584KiB time=00:00:03.86 bitrate=7593.2kbits/s speed=0.0112x elapsed=0:05:44.00    \nframe=  118 fps=0.3 q=38.0 size=    3584KiB time=00:00:03.86 bitrate=7593.2kbits/s speed=0.0112x elapsed=0:05:44.59    \nframe=  118 fps=0.3 q=38.0 size=    3584KiB time=00:00:03.86 bitrate=7593.2kbits/s speed=0.0112x elapsed=0:05:45.11    \nframe=  118 fps=0.3 q=38.0 size=    3584KiB time=00:00:03.86 bitrate=7593.2kbits/s speed=0.0112x elapsed=0:05:45.69    \nframe=  118 fps=0.3 q=38.0 size=    3584KiB time=00:00:03.86 bitrate=7593.2kbits/s speed=0.0112x elapsed=0:05:46.40    \nframe=  118 fps=0.3 q=38.0 size=    3584KiB time=00:00:03.86 bitrate=7593.2kbits/s speed=0.0111x elapsed=0:05:47.17    \nframe=  118 fps=0.3 q=38.0 size=    3584KiB time=00:00:03.86 bitrate=7593.2kbits/s speed=0.0111x elapsed=0:05:47.91    \nframe=  118 fps=0.3 q=38.0 size=    3584KiB time=00:00:03.86 bitrate=7593.2kbits/s speed=0.0111x elapsed=0:05:48.48    \nframe=  118 fps=0.3 q=38.0 size=    3584KiB time=00:00:03.86 bitrate=7593.2kbits/s speed=0.0111x elapsed=0:05:49.03    \nframe=  118 fps=0.3 q=38.0 size=    3584KiB time=00:00:03.86 bitrate=7593.2kbits/s speed=0.0111x elapsed=0:05:49.62    \nframe=  118 fps=0.3 q=38.0 size=    3584KiB time=00:00:03.86 bitrate=7593.2kbits/s speed=0.011x elapsed=0:05:50.23    \nframe=  118 fps=0.3 q=38.0 size=    3584KiB time=00:00:03.86 bitrate=7593.2kbits/s speed=0.011x elapsed=0:05:50.91    \nframe=  118 fps=0.3 q=38.0 size=    3584KiB time=00:00:03.86 bitrate=7593.2kbits/s speed=0.011x elapsed=0:05:51.58    \nframe=  118 fps=0.3 q=38.0 size=    3584KiB time=00:00:03.86 bitrate=7593.2kbits/s speed=0.011x elapsed=0:05:52.25    \nframe=  118 fps=0.3 q=38.0 size=    3584KiB time=00:00:03.86 bitrate=7593.2kbits/s speed=0.011x elapsed=0:05:52.80    \nframe=  119 fps=0.3 q=32.8 size=    3840KiB time=00:00:03.86 bitrate=8135.6kbits/s speed=0.0109x elapsed=0:05:53.34    \nframe=  119 fps=0.3 q=32.8 size=    3840KiB time=00:00:03.90 bitrate=8066.1kbits/s speed=0.011x elapsed=0:05:53.91    \nframe=  119 fps=0.3 q=32.8 size=    3840KiB time=00:00:03.90 bitrate=8066.1kbits/s speed=0.011x elapsed=0:05:54.48    \nframe=  119 fps=0.3 q=32.8 size=    3840KiB time=00:00:03.90 bitrate=8066.1kbits/s speed=0.011x elapsed=0:05:55.16    \nframe=  119 fps=0.3 q=32.8 size=    3840KiB time=00:00:03.90 bitrate=8066.1kbits/s speed=0.011x elapsed=0:05:55.72    \nframe=  119 fps=0.3 q=32.8 size=    3840KiB time=00:00:03.90 bitrate=8066.1kbits/s speed=0.0109x elapsed=0:05:56.43    \nframe=  119 fps=0.3 q=32.8 size=    3840KiB time=00:00:03.90 bitrate=8066.1kbits/s speed=0.0109x elapsed=0:05:56.98    \nframe=  119 fps=0.3 q=32.8 size=    3840KiB time=00:00:03.90 bitrate=8066.1kbits/s speed=0.0109x elapsed=0:05:57.53    \nframe=  119 fps=0.3 q=32.8 size=    3840KiB time=00:00:03.90 bitrate=8066.1kbits/s speed=0.0109x elapsed=0:05:58.09    \nframe=  119 fps=0.3 q=32.8 size=    3840KiB time=00:00:03.90 bitrate=8066.1kbits/s speed=0.0109x elapsed=0:05:58.80    \nframe=  119 fps=0.3 q=32.8 size=    3840KiB time=00:00:03.90 bitrate=8066.1kbits/s speed=0.0108x elapsed=0:05:59.47    \nframe=  119 fps=0.3 q=32.8 size=    3840KiB time=00:00:03.90 bitrate=8066.1kbits/s speed=0.0108x elapsed=0:06:00.13    \nframe=  119 fps=0.3 q=32.8 size=    3840KiB time=00:00:03.90 bitrate=8066.1kbits/s speed=0.0108x elapsed=0:06:00.70    \nframe=  120 fps=0.3 q=36.1 size=    3840KiB time=00:00:03.93 bitrate=7997.7kbits/s speed=0.0109x elapsed=0:06:01.24    \nframe=  120 fps=0.3 q=36.1 size=    3840KiB time=00:00:03.93 bitrate=7997.7kbits/s speed=0.0109x elapsed=0:06:01.81    \nframe=  120 fps=0.3 q=36.1 size=    3840KiB time=00:00:03.93 bitrate=7997.7kbits/s speed=0.0109x elapsed=0:06:02.38    \nframe=  120 fps=0.3 q=36.1 size=    3840KiB time=00:00:03.93 bitrate=7997.7kbits/s speed=0.0108x elapsed=0:06:02.93    \nframe=  120 fps=0.3 q=36.1 size=    3840KiB time=00:00:03.93 bitrate=7997.7kbits/s speed=0.0108x elapsed=0:06:03.56    \nframe=  121 fps=0.3 q=38.1 size=    3840KiB time=00:00:03.96 bitrate=7930.5kbits/s speed=0.0109x elapsed=0:06:04.17    \nframe=  121 fps=0.3 q=38.1 size=    3840KiB time=00:00:03.96 bitrate=7930.5kbits/s speed=0.0109x elapsed=0:06:04.70    \nframe=  121 fps=0.3 q=38.1 size=    3840KiB time=00:00:03.96 bitrate=7930.5kbits/s speed=0.0109x elapsed=0:06:05.22    \nframe=  121 fps=0.3 q=38.1 size=    3840KiB time=00:00:03.96 bitrate=7930.5kbits/s speed=0.0108x elapsed=0:06:05.73    \nframe=  121 fps=0.3 q=38.1 size=    3840KiB time=00:00:03.96 bitrate=7930.5kbits/s speed=0.0108x elapsed=0:06:06.25    \nframe=  122 fps=0.3 q=38.0 size=    3840KiB time=00:00:04.00 bitrate=7864.4kbits/s speed=0.0109x elapsed=0:06:06.79    \nframe=  122 fps=0.3 q=38.0 size=    3840KiB time=00:00:04.00 bitrate=7864.4kbits/s speed=0.0109x elapsed=0:06:07.33    \nframe=  122 fps=0.3 q=38.0 size=    3840KiB time=00:00:04.00 bitrate=7864.4kbits/s speed=0.0109x elapsed=0:06:07.87    \nframe=  123 fps=0.3 q=33.0 size=    3840KiB time=00:00:04.03 bitrate=7799.4kbits/s speed=0.0109x elapsed=0:06:08.41    \nframe=  123 fps=0.3 q=33.0 size=    3840KiB time=00:00:04.03 bitrate=7799.4kbits/s speed=0.0109x elapsed=0:06:08.96    \nframe=  123 fps=0.3 q=33.0 size=    3840KiB time=00:00:04.03 bitrate=7799.4kbits/s speed=0.0109x elapsed=0:06:09.49    \nframe=  123 fps=0.3 q=33.0 size=    3840KiB time=00:00:04.03 bitrate=7799.4kbits/s speed=0.0109x elapsed=0:06:10.01    \nframe=  123 fps=0.3 q=33.0 size=    3840KiB time=00:00:04.03 bitrate=7799.4kbits/s speed=0.0109x elapsed=0:06:10.54    \nframe=  124 fps=0.3 q=36.0 size=    3840KiB time=00:00:04.06 bitrate=7735.5kbits/s speed=0.011x elapsed=0:06:11.06    \nframe=  124 fps=0.3 q=36.0 size=    3840KiB time=00:00:04.06 bitrate=7735.5kbits/s speed=0.0109x elapsed=0:06:11.58    \nframe=  125 fps=0.3 q=38.1 size=    3840KiB time=00:00:04.10 bitrate=7672.6kbits/s speed=0.011x elapsed=0:06:12.12    \nframe=  126 fps=0.3 q=38.1 size=    3840KiB time=00:00:04.13 bitrate=7610.7kbits/s speed=0.0111x elapsed=0:06:12.63    \nframe=  126 fps=0.3 q=38.1 size=    3840KiB time=00:00:04.13 bitrate=7610.7kbits/s speed=0.0111x elapsed=0:06:13.15    \nframe=  127 fps=0.3 q=32.8 size=    4096KiB time=00:00:04.16 bitrate=8053.1kbits/s speed=0.0112x elapsed=0:06:13.65    \nframe=  127 fps=0.3 q=32.8 size=    4096KiB time=00:00:04.16 bitrate=8053.1kbits/s speed=0.0111x elapsed=0:06:14.17    \nframe=  127 fps=0.3 q=32.8 size=    4096KiB time=00:00:04.16 bitrate=8053.1kbits/s speed=0.0111x elapsed=0:06:14.73    \nframe=  128 fps=0.3 q=37.0 size=    4096KiB time=00:00:04.20 bitrate=7989.2kbits/s speed=0.0112x elapsed=0:06:15.26    \nframe=  128 fps=0.3 q=37.0 size=    4096KiB time=00:00:04.20 bitrate=7989.2kbits/s speed=0.0112x elapsed=0:06:15.79    \nframe=  128 fps=0.3 q=37.0 size=    4096KiB time=00:00:04.20 bitrate=7989.2kbits/s speed=0.0112x elapsed=0:06:16.31    \nframe=  128 fps=0.3 q=37.0 size=    4096KiB time=00:00:04.20 bitrate=7989.2kbits/s speed=0.0111x elapsed=0:06:16.83    \nframe=  129 fps=0.3 q=38.0 size=    4096KiB time=00:00:04.23 bitrate=7926.3kbits/s speed=0.0112x elapsed=0:06:17.35    \nframe=  130 fps=0.3 q=38.1 size=    4096KiB time=00:00:04.26 bitrate=7864.4kbits/s speed=0.0113x elapsed=0:06:17.86    \nframe=  131 fps=0.3 q=38.2 size=    4096KiB time=00:00:04.30 bitrate=7803.4kbits/s speed=0.0114x elapsed=0:06:18.38    \nframe=  131 fps=0.3 q=38.2 size=    4096KiB time=00:00:04.30 bitrate=7803.4kbits/s speed=0.0113x elapsed=0:06:18.89    \nframe=  131 fps=0.3 q=38.2 size=    4096KiB time=00:00:04.30 bitrate=7803.4kbits/s speed=0.0113x elapsed=0:06:19.40    \nframe=  131 fps=0.3 q=38.2 size=    4096KiB time=00:00:04.30 bitrate=7803.4kbits/s speed=0.0113x elapsed=0:06:19.92    \nframe=  131 fps=0.3 q=38.2 size=    4096KiB time=00:00:04.30 bitrate=7803.4kbits/s speed=0.0113x elapsed=0:06:20.45    \nframe=  132 fps=0.3 q=32.9 size=    4096KiB time=00:00:04.33 bitrate=7743.4kbits/s speed=0.0114x elapsed=0:06:20.97    \nframe=  132 fps=0.3 q=32.9 size=    4096KiB time=00:00:04.33 bitrate=7743.4kbits/s speed=0.0114x elapsed=0:06:21.50    \nframe=  132 fps=0.3 q=32.9 size=    4096KiB time=00:00:04.33 bitrate=7743.4kbits/s speed=0.0113x elapsed=0:06:22.01    \nframe=  132 fps=0.3 q=32.9 size=    4096KiB time=00:00:04.33 bitrate=7743.4kbits/s speed=0.0113x elapsed=0:06:22.54    \nframe=  132 fps=0.3 q=32.9 size=    4096KiB time=00:00:04.33 bitrate=7743.4kbits/s speed=0.0113x elapsed=0:06:23.06    \nframe=  133 fps=0.3 q=34.3 size=    4096KiB time=00:00:04.36 bitrate=7684.3kbits/s speed=0.0114x elapsed=0:06:23.60    \nframe=  133 fps=0.3 q=34.3 size=    4096KiB time=00:00:04.36 bitrate=7684.3kbits/s speed=0.0114x elapsed=0:06:24.11    \nframe=  133 fps=0.3 q=34.3 size=    4096KiB time=00:00:04.36 bitrate=7684.3kbits/s speed=0.0114x elapsed=0:06:24.63    \nframe=  134 fps=0.3 q=38.2 size=    4352KiB time=00:00:04.40 bitrate=8102.7kbits/s speed=0.0114x elapsed=0:06:25.14    \nframe=  136 fps=0.4 q=38.2 size=    4352KiB time=00:00:04.46 bitrate=7981.8kbits/s speed=0.0116x elapsed=0:06:25.66    \nframe=  136 fps=0.4 q=38.2 size=    4352KiB time=00:00:04.46 bitrate=7981.8kbits/s speed=0.0116x elapsed=0:06:26.19    \nframe=  136 fps=0.4 q=38.2 size=    4352KiB time=00:00:04.46 bitrate=7981.8kbits/s speed=0.0116x elapsed=0:06:26.71    \nframe=  136 fps=0.4 q=38.2 size=    4352KiB time=00:00:04.46 bitrate=7981.8kbits/s speed=0.0115x elapsed=0:06:27.23    \nframe=  136 fps=0.4 q=38.2 size=    4352KiB time=00:00:04.46 bitrate=7981.8kbits/s speed=0.0115x elapsed=0:06:27.75    \nframe=  136 fps=0.4 q=38.2 size=    4352KiB time=00:00:04.46 bitrate=7981.8kbits/s speed=0.0115x elapsed=0:06:28.28    \nframe=  136 fps=0.3 q=38.2 size=    4352KiB time=00:00:04.46 bitrate=7981.8kbits/s speed=0.0115x elapsed=0:06:28.80    \nframe=  136 fps=0.3 q=38.2 size=    4352KiB time=00:00:04.46 bitrate=7981.8kbits/s speed=0.0115x elapsed=0:06:29.32    \nframe=  137 fps=0.4 q=33.4 size=    4352KiB time=00:00:04.50 bitrate=7922.7kbits/s speed=0.0115x elapsed=0:06:29.87    \nframe=  137 fps=0.4 q=33.4 size=    4352KiB time=00:00:04.50 bitrate=7922.7kbits/s speed=0.0115x elapsed=0:06:30.40    \nframe=  137 fps=0.4 q=33.4 size=    4352KiB time=00:00:04.50 bitrate=7922.7kbits/s speed=0.0115x elapsed=0:06:30.92    \nframe=  137 fps=0.3 q=33.4 size=    4352KiB time=00:00:04.50 bitrate=7922.7kbits/s speed=0.0115x elapsed=0:06:31.44    \nframe=  138 fps=0.4 q=36.9 size=    4352KiB time=00:00:04.53 bitrate=7864.4kbits/s speed=0.0116x elapsed=0:06:31.97    \nframe=  138 fps=0.4 q=36.9 size=    4352KiB time=00:00:04.53 bitrate=7864.4kbits/s speed=0.0115x elapsed=0:06:32.51    \nframe=  138 fps=0.4 q=36.9 size=    4352KiB time=00:00:04.53 bitrate=7864.4kbits/s speed=0.0115x elapsed=0:06:33.04    \nframe=  138 fps=0.4 q=36.9 size=    4352KiB time=00:00:04.53 bitrate=7864.4kbits/s speed=0.0115x elapsed=0:06:33.56    \nframe=  139 fps=0.4 q=38.1 size=    4352KiB time=00:00:04.56 bitrate=7807.0kbits/s speed=0.0116x elapsed=0:06:34.10    \nframe=  140 fps=0.4 q=38.1 size=    4352KiB time=00:00:04.60 bitrate=7750.4kbits/s speed=0.0117x elapsed=0:06:34.60    \nframe=  141 fps=0.4 q=38.2 size=    4352KiB time=00:00:04.63 bitrate=7694.7kbits/s speed=0.0117x elapsed=0:06:35.13    \nframe=  141 fps=0.4 q=38.2 size=    4352KiB time=00:00:04.63 bitrate=7694.7kbits/s speed=0.0117x elapsed=0:06:35.66    \nframe=  141 fps=0.4 q=38.2 size=    4352KiB time=00:00:04.63 bitrate=7694.7kbits/s speed=0.0117x elapsed=0:06:36.17    \nframe=  142 fps=0.4 q=33.9 size=    4352KiB time=00:00:04.66 bitrate=7639.7kbits/s speed=0.0118x elapsed=0:06:36.69    \nframe=  142 fps=0.4 q=33.9 size=    4352KiB time=00:00:04.66 bitrate=7639.7kbits/s speed=0.0117x elapsed=0:06:37.20    \nframe=  142 fps=0.4 q=33.9 size=    4352KiB time=00:00:04.66 bitrate=7639.7kbits/s speed=0.0117x elapsed=0:06:37.72    \nframe=  142 fps=0.4 q=33.9 size=    4352KiB time=00:00:04.66 bitrate=7639.7kbits/s speed=0.0117x elapsed=0:06:38.23    \nframe=  142 fps=0.4 q=33.9 size=    4352KiB time=00:00:04.66 bitrate=7639.7kbits/s speed=0.0117x elapsed=0:06:38.76    \nframe=  143 fps=0.4 q=35.8 size=    4608KiB time=00:00:04.70 bitrate=8031.7kbits/s speed=0.0118x elapsed=0:06:39.28    \nframe=  143 fps=0.4 q=35.8 size=    4608KiB time=00:00:04.70 bitrate=8031.7kbits/s speed=0.0118x elapsed=0:06:39.82    \nframe=  143 fps=0.4 q=35.8 size=    4608KiB time=00:00:04.70 bitrate=8031.7kbits/s speed=0.0117x elapsed=0:06:40.35    \nframe=  143 fps=0.4 q=35.8 size=    4608KiB time=00:00:04.70 bitrate=8031.7kbits/s speed=0.0117x elapsed=0:06:40.88    \nframe=  146 fps=0.4 q=38.1 size=    4608KiB time=00:00:04.80 bitrate=7864.4kbits/s speed=0.012x elapsed=0:06:41.42    \nframe=  146 fps=0.4 q=38.1 size=    4608KiB time=00:00:04.80 bitrate=7864.4kbits/s speed=0.0119x elapsed=0:06:41.96    \nframe=  146 fps=0.4 q=38.1 size=    4608KiB time=00:00:04.80 bitrate=7864.4kbits/s speed=0.0119x elapsed=0:06:42.48    \nframe=  146 fps=0.4 q=38.1 size=    4608KiB time=00:00:04.80 bitrate=7864.4kbits/s speed=0.0119x elapsed=0:06:42.98    \nframe=  147 fps=0.4 q=35.6 size=    4608KiB time=00:00:04.83 bitrate=7810.2kbits/s speed=0.012x elapsed=0:06:43.50    \nframe=  147 fps=0.4 q=35.6 size=    4608KiB time=00:00:04.83 bitrate=7810.2kbits/s speed=0.012x elapsed=0:06:44.01    \nframe=  147 fps=0.4 q=35.6 size=    4608KiB time=00:00:04.83 bitrate=7810.2kbits/s speed=0.0119x elapsed=0:06:44.53    \nframe=  147 fps=0.4 q=35.6 size=    4608KiB time=00:00:04.83 bitrate=7810.2kbits/s speed=0.0119x elapsed=0:06:45.06    \nframe=  147 fps=0.4 q=35.6 size=    4608KiB time=00:00:04.83 bitrate=7810.2kbits/s speed=0.0119x elapsed=0:06:45.58    \nframe=  147 fps=0.4 q=35.6 size=    4608KiB time=00:00:04.83 bitrate=7810.2kbits/s speed=0.0119x elapsed=0:06:46.11    \nframe=  148 fps=0.4 q=36.0 size=    4608KiB time=00:00:04.86 bitrate=7756.7kbits/s speed=0.012x elapsed=0:06:46.62    \nframe=  148 fps=0.4 q=36.0 size=    4608KiB time=00:00:04.86 bitrate=7756.7kbits/s speed=0.012x elapsed=0:06:47.16    \nframe=  148 fps=0.4 q=36.0 size=    4608KiB time=00:00:04.86 bitrate=7756.7kbits/s speed=0.0119x elapsed=0:06:47.68    \n[mp4 @ 0000027ab5dea980] Starting second pass: moving the moov atom to the beginning of the file\n[out#0/mp4 @ 0000027ab5df1700] video:4874KiB audio:0KiB subtitle:0KiB other streams:0KiB global headers:2KiB muxing overhead: 0.103869%\nframe=  150 fps=0.4 q=38.0 Lsize=    4879KiB time=00:00:04.93 bitrate=8101.8kbits/s speed=0.0121x elapsed=0:06:48.12    \nx265 [info]: frame I:      1, Avg QP:28.39  kb/s: 32793.84\nx265 [info]: frame P:     31, Avg QP:33.10  kb/s: 12233.98\nx265 [info]: frame B:    118, Avg QP:37.93  kb/s: 6657.89 \nx265 [info]: Weighted P-Frames: Y:0.0% UV:0.0%\n\nencoded 150 frames in 407.32s (0.37 fps), 7984.52 kb/s, Avg QP:36.86\n",
  "seconds": 408.4553258419037,
  "probe_out": {}
}